<?xml version="1.0" encoding="UTF-8"?>
<!DOCTYPE svg PUBLIC "-//W3C//DTD SVG 1.1//EN" "http://www.w3.org/Graphics/SVG/1.1/DTD/svg11.dtd">
<svg xmlns="http://www.w3.org/2000/svg" version="1.1" width="1080px" height="1080px" style="shape-rendering:geometricPrecision; text-rendering:geometricPrecision; image-rendering:optimizeQuality; fill-rule:evenodd; clip-rule:evenodd" xmlns:xlink="http://www.w3.org/1999/xlink">
<g><path style="opacity:0.143" fill="#f5f5f5" d="M 637.5,136.5 C 639.533,134.461 641.199,132.128 642.5,129.5C 644.346,129.778 645.68,129.111 646.5,127.5C 654.145,126.335 661.812,126.169 669.5,127C 671.7,129.046 674.367,130.046 677.5,130C 683.906,133.992 689.906,138.492 695.5,143.5C 696.484,146.428 696.817,149.428 696.5,152.5C 695.5,152.5 694.5,152.5 693.5,152.5C 690.687,159.071 688.187,165.738 686,172.5C 683.359,174.6 682.359,177.266 683,180.5C 684.13,178.067 685.296,175.734 686.5,173.5C 687.5,173.5 688.5,173.5 689.5,173.5C 689.167,170.5 690.5,169.167 693.5,169.5C 693.5,168.5 693.5,167.5 693.5,166.5C 694.5,166.5 695.5,166.5 696.5,166.5C 696.5,165.5 696.5,164.5 696.5,163.5C 697.833,163.5 699.167,163.5 700.5,163.5C 700.5,162.5 700.5,161.5 700.5,160.5C 703.919,160.396 706.919,159.229 709.5,157C 718.5,156.333 727.5,156.333 736.5,157C 739.393,159.221 742.726,160.388 746.5,160.5C 746.5,161.5 746.5,162.5 746.5,163.5C 749.765,163.918 752.765,165.085 755.5,167C 759.223,173.541 764.89,177.041 772.5,177.5C 773.386,178.325 773.719,179.325 773.5,180.5C 775.527,180.338 777.527,180.505 779.5,181C 780.617,182.892 782.284,183.725 784.5,183.5C 784.5,184.5 784.5,185.5 784.5,186.5C 788.573,189.273 792.906,191.607 797.5,193.5C 797.5,194.5 797.5,195.5 797.5,196.5C 800.084,196.569 802.084,197.735 803.5,200C 804.793,200.49 806.127,200.657 807.5,200.5C 807.5,201.5 807.5,202.5 807.5,203.5C 808.833,203.5 810.167,203.5 811.5,203.5C 811.5,204.833 811.5,206.167 811.5,207.5C 812.873,207.343 814.207,207.51 815.5,208C 818.543,209.937 821.543,211.771 824.5,213.5C 824.5,214.833 824.5,216.167 824.5,217.5C 825.5,217.5 826.5,217.5 827.5,217.5C 827.809,221.221 828.809,224.721 830.5,228C 829.269,232.091 828.269,236.257 827.5,240.5C 828.833,240.5 830.167,240.5 831.5,240.5C 831.5,239.5 831.5,238.5 831.5,237.5C 834.915,237.739 838.081,237.072 841,235.5C 843.814,238.643 846.98,241.476 850.5,244C 851.793,244.49 853.127,244.657 854.5,244.5C 854.5,245.5 854.5,246.5 854.5,247.5C 857.14,247.447 859.64,246.78 862,245.5C 863.107,245.585 864.107,245.919 865,246.5C 865.333,250.833 865.667,255.167 866,259.5C 866.667,260.167 867.333,260.833 868,261.5C 867.621,266.422 869.121,270.588 872.5,274C 874.473,274.495 876.473,274.662 878.5,274.5C 878.5,275.5 878.5,276.5 878.5,277.5C 882.555,277.568 885.722,279.234 888,282.5C 888.667,283.833 888.667,285.167 888,286.5C 884.263,290.082 879.763,291.915 874.5,292C 875.167,292.667 875.833,293.333 876.5,294C 881.116,293.729 885.116,295.063 888.5,298C 892.142,298.523 895.476,299.69 898.5,301.5C 898.167,304.5 899.5,305.833 902.5,305.5C 904.641,309.91 906.974,314.243 909.5,318.5C 911.91,318.921 913.743,320.254 915,322.5C 915.333,326.5 915.667,330.5 916,334.5C 918.942,336.328 920.109,338.995 919.5,342.5C 920.5,342.5 921.5,342.5 922.5,342.5C 924.199,346.021 926.366,349.354 929,352.5C 931.149,358.302 933.482,363.969 936,369.5C 937.509,371.919 939.675,372.919 942.5,372.5C 942.929,376.257 942.263,379.757 940.5,383C 942.016,384.897 942.683,387.064 942.5,389.5C 943.822,389.33 944.989,389.663 946,390.5C 946.399,393.686 947.232,396.686 948.5,399.5C 947.16,403.372 946.326,407.372 946,411.5C 943.56,414.922 941.56,418.589 940,422.5C 939.503,424.81 939.337,427.143 939.5,429.5C 938.167,429.5 936.833,429.5 935.5,429.5C 935.5,430.5 935.5,431.5 935.5,432.5C 932.514,432.435 930.18,433.602 928.5,436C 926.5,436.167 924.5,436.333 922.5,436.5C 915.836,435.169 909.17,433.836 902.5,432.5C 901.982,436.547 901.148,440.547 900,444.5C 899.5,445 899,445.5 898.5,446C 907.693,446.017 916.86,446.184 926,446.5C 930.407,445.815 934.74,444.815 939,443.5C 943.991,445.53 949.158,447.197 954.5,448.5C 959.323,445.873 964.156,445.873 969,448.5C 969.755,453.751 968.089,458.084 964,461.5C 962.258,466.395 962.924,471.062 966,475.5C 967.481,489.192 966.314,502.525 962.5,515.5C 965.102,518.917 967.269,522.584 969,526.5C 969.333,534.167 969.667,541.833 970,549.5C 972.732,551.976 975.232,554.643 977.5,557.5C 979.045,558.452 980.712,558.785 982.5,558.5C 982.5,559.5 982.5,560.5 982.5,561.5C 983.822,561.33 984.989,561.663 986,562.5C 986.415,564.291 987.415,565.624 989,566.5C 989.711,568.367 989.211,569.867 987.5,571C 981.501,570.8 975.834,571.966 970.5,574.5C 970.052,579.419 968.885,584.086 967,588.5C 966.667,594.167 966.333,599.833 966,605.5C 963.906,609.578 962.74,613.911 962.5,618.5C 961.5,618.5 960.5,618.5 959.5,618.5C 959.682,620.591 959.348,622.591 958.5,624.5C 960.428,626.588 962.761,628.088 965.5,629C 966.097,630.062 966.43,631.228 966.5,632.5C 964.325,637.846 961.158,642.513 957,646.5C 957.145,649.923 955.645,651.923 952.5,652.5C 952.539,654.359 951.706,655.692 950,656.5C 949.505,658.473 949.338,660.473 949.5,662.5C 948.5,662.5 947.5,662.5 946.5,662.5C 946.666,667.844 946.499,673.177 946,678.5C 945,679.5 944,680.5 943,681.5C 942.776,685.797 941.943,689.963 940.5,694C 942.225,696.886 942.892,700.052 942.5,703.5C 943.5,703.5 944.5,703.5 945.5,703.5C 945.993,705.806 946.326,708.139 946.5,710.5C 947.5,710.5 948.5,710.5 949.5,710.5C 949.784,713.777 949.451,716.943 948.5,720C 942.83,719.906 937.496,718.906 932.5,717C 930.364,719.401 929.197,722.235 929,725.5C 927.989,726.337 926.822,726.67 925.5,726.5C 923.645,733.32 921.311,739.987 918.5,746.5C 917.5,746.5 916.5,746.5 915.5,746.5C 915.657,747.873 915.49,749.207 915,750.5C 913.252,752.135 912.085,754.135 911.5,756.5C 910.155,757.347 909.155,758.513 908.5,760C 907.552,760.483 906.552,760.649 905.5,760.5C 905.5,761.5 905.5,762.5 905.5,763.5C 903.167,763.5 900.833,763.5 898.5,763.5C 898.5,764.833 898.5,766.167 898.5,767.5C 896.173,767.247 894.173,767.914 892.5,769.5C 890.615,768.391 888.615,767.557 886.5,767C 885.663,765.989 885.33,764.822 885.5,763.5C 880.781,761.495 876.114,759.495 871.5,757.5C 874.105,761.485 876.272,765.819 878,770.5C 877.952,774.521 878.952,778.187 881,781.5C 881.667,785.5 881.667,789.5 881,793.5C 880.333,794.167 879.667,794.833 879,795.5C 878.667,798.5 878.333,801.5 878,804.5C 876.113,806.026 875.113,808.026 875,810.5C 871.36,814.648 867.86,818.982 864.5,823.5C 862.604,824.466 860.604,824.799 858.5,824.5C 858.67,825.822 858.337,826.989 857.5,828C 851.057,832.446 844.724,836.946 838.5,841.5C 835.437,844.438 833.104,847.771 831.5,851.5C 830.5,851.5 829.5,851.5 828.5,851.5C 828.649,852.552 828.483,853.552 828,854.5C 823.646,858.621 819.812,863.121 816.5,868C 815.09,868.368 814.09,869.201 813.5,870.5C 811.604,871.466 809.604,871.799 807.5,871.5C 807.5,872.833 807.5,874.167 807.5,875.5C 803.131,874.923 799.131,875.757 795.5,878C 793.866,878.494 792.199,878.66 790.5,878.5C 789.439,881.864 788.439,885.197 787.5,888.5C 786.5,888.5 785.5,888.5 784.5,888.5C 784.5,889.833 784.5,891.167 784.5,892.5C 783.167,892.5 781.833,892.5 780.5,892.5C 780.5,893.5 780.5,894.5 780.5,895.5C 777.545,897.386 774.211,898.386 770.5,898.5C 770.649,899.552 770.483,900.552 770,901.5C 767.773,903.607 765.773,905.94 764,908.5C 763.667,913.833 763.333,919.167 763,924.5C 761.249,926.49 760.249,928.823 760,931.5C 758.301,932.406 756.467,932.739 754.5,932.5C 754.394,929.892 753.228,927.892 751,926.5C 750.51,925.207 750.343,923.873 750.5,922.5C 749.5,922.5 748.5,922.5 747.5,922.5C 747.5,921.167 747.5,919.833 747.5,918.5C 744.148,918.224 741.481,919.391 739.5,922C 732.758,922.913 726.091,924.246 719.5,926C 712.51,930.334 705.51,934.668 698.5,939C 694.401,940.204 690.401,941.371 686.5,942.5C 686.833,945.5 685.5,946.833 682.5,946.5C 682.5,947.5 682.5,948.5 682.5,949.5C 679.482,949.665 676.482,949.498 673.5,949C 672.833,948 672.167,947 671.5,946C 666.395,943.638 661.395,943.471 656.5,945.5C 652.992,943.585 651.659,940.585 652.5,936.5C 648.841,935.685 646.174,933.519 644.5,930C 642.833,929.167 641.167,928.333 639.5,927.5C 635.058,929.454 630.558,929.787 626,928.5C 625.833,927 625.667,925.5 625.5,924C 626.963,920.235 628.296,916.401 629.5,912.5C 630.5,912.5 631.5,912.5 632.5,912.5C 630.621,909.418 629.621,905.918 629.5,902C 629.884,897.818 630.718,893.985 632,890.5C 630.509,888.996 628.676,888.163 626.5,888C 625.81,885.304 624.31,883.137 622,881.5C 619.163,885.169 616.83,889.169 615,893.5C 611.545,895.282 609.212,897.948 608,901.5C 606.229,902.304 604.729,903.471 603.5,905C 601.5,905.333 599.5,905.667 597.5,906C 594.995,908.666 591.995,910.499 588.5,911.5C 587.353,911.182 586.519,910.516 586,909.5C 585.503,907.19 585.337,904.857 585.5,902.5C 582.5,902.833 581.167,901.5 581.5,898.5C 577.744,898.467 574.411,897.467 571.5,895.5C 571.5,894.5 571.5,893.5 571.5,892.5C 570.5,892.5 569.5,892.5 568.5,892.5C 568.762,891.022 568.429,889.689 567.5,888.5C 566.049,886.441 564.049,885.441 561.5,885.5C 561.5,884.5 561.5,883.5 561.5,882.5C 556.523,881.014 553.856,883.014 553.5,888.5C 550.307,892.54 547.474,896.874 545,901.5C 544.143,904.551 544.81,907.217 547,909.5C 547.831,917.188 547.665,924.855 546.5,932.5C 545.241,936.962 543.407,941.296 541,945.5C 537.718,950.285 533.885,954.785 529.5,959C 524.05,961.71 518.383,964.043 512.5,966C 506.167,966.667 499.833,966.667 493.5,966C 486.774,964.397 480.441,962.064 474.5,959C 473.667,957.5 472.5,956.333 471,955.5C 470.517,954.552 470.351,953.552 470.5,952.5C 467.167,952.5 463.833,952.5 460.5,952.5C 460.67,953.822 460.337,954.989 459.5,956C 454.027,956.147 448.694,956.98 443.5,958.5C 438.375,956.9 433.041,956.067 427.5,956C 420.498,951.777 413.498,947.61 406.5,943.5C 398.214,943.094 390.214,941.76 382.5,939.5C 382.5,938.5 382.5,937.5 382.5,936.5C 374.939,933.758 367.272,931.258 359.5,929C 356.423,926.144 352.756,924.978 348.5,925.5C 348.5,924.5 348.5,923.5 348.5,922.5C 346.5,922.5 344.5,922.5 342.5,922.5C 342.5,921.5 342.5,920.5 342.5,919.5C 341.167,919.5 339.833,919.5 338.5,919.5C 338.67,918.178 338.337,917.011 337.5,916C 330.787,914.219 324.787,911.053 319.5,906.5C 318.311,905.571 316.978,905.238 315.5,905.5C 315.5,904.5 315.5,903.5 315.5,902.5C 314.127,902.657 312.793,902.49 311.5,902C 308.67,899.751 305.67,897.751 302.5,896C 301.207,895.51 299.873,895.343 298.5,895.5C 298.5,894.5 298.5,893.5 298.5,892.5C 295.5,892.833 294.167,891.5 294.5,888.5C 292.5,888.5 290.5,888.5 288.5,888.5C 288.5,887.5 288.5,886.5 288.5,885.5C 286.409,885.682 284.409,885.348 282.5,884.5C 281.614,883.675 281.281,882.675 281.5,881.5C 280.5,881.5 279.5,881.5 278.5,881.5C 278.5,880.5 278.5,879.5 278.5,878.5C 277.325,878.719 276.325,878.386 275.5,877.5C 271.363,872.203 267.863,866.536 265,860.5C 264.333,858.5 264.333,856.5 265,854.5C 266.847,851.594 268.014,848.427 268.5,845C 266.612,845.804 264.612,846.804 262.5,848C 260.866,848.494 259.199,848.66 257.5,848.5C 257.5,849.5 257.5,850.5 257.5,851.5C 254.167,851.5 250.833,851.5 247.5,851.5C 247.5,850.5 247.5,849.5 247.5,848.5C 244.916,848.431 242.916,847.265 241.5,845C 240.207,844.51 238.873,844.343 237.5,844.5C 237.5,843.5 237.5,842.5 237.5,841.5C 233.796,841.357 230.463,842.357 227.5,844.5C 226.558,844.392 225.725,844.059 225,843.5C 224.073,839.738 224.573,836.238 226.5,833C 224.303,830.106 222.47,826.939 221,823.5C 220.505,821.527 220.338,819.527 220.5,817.5C 217.339,816.024 214.005,815.024 210.5,814.5C 210.5,813.5 210.5,812.5 210.5,811.5C 205.977,811.655 202.811,809.655 201,805.5C 201.401,802.939 201.235,800.272 200.5,797.5C 199.325,797.719 198.325,797.386 197.5,796.5C 194.53,792.03 191.03,788.03 187,784.5C 185.87,782.067 184.704,779.734 183.5,777.5C 182.5,777.5 181.5,777.5 180.5,777.5C 180.5,776.167 180.5,774.833 180.5,773.5C 179.022,773.762 177.689,773.429 176.5,772.5C 174.703,771.305 173.703,769.638 173.5,767.5C 168.558,765.331 168.225,762.331 172.5,758.5C 173.489,754.893 173.823,751.226 173.5,747.5C 171.194,747.007 168.861,746.674 166.5,746.5C 166.5,745.5 166.5,744.5 166.5,743.5C 165.5,743.5 164.5,743.5 163.5,743.5C 163.5,742.5 163.5,741.5 163.5,740.5C 162.178,740.67 161.011,740.337 160,739.5C 157.685,733.43 155.185,727.43 152.5,721.5C 149.123,720.658 146.123,719.158 143.5,717C 137.76,715.773 132.093,714.606 126.5,713.5C 126.5,710.167 126.5,706.833 126.5,703.5C 128.924,703.808 131.257,703.474 133.5,702.5C 134.939,700.447 136.939,699.447 139.5,699.5C 139.936,696.636 139.103,694.303 137,692.5C 135.264,683.201 136.764,674.701 141.5,667C 143.134,666.506 144.801,666.34 146.5,666.5C 146.33,665.178 146.663,664.011 147.5,663C 150.329,662.952 152.663,661.952 154.5,660C 159.792,659.777 164.792,658.611 169.5,656.5C 172.71,656.975 175.876,657.642 179,658.5C 180.169,657.991 181.002,657.158 181.5,656C 178.371,653.24 176.704,649.74 176.5,645.5C 171.833,645.5 167.167,645.5 162.5,645.5C 162.662,647.527 162.495,649.527 162,651.5C 160.173,653.302 159.006,655.468 158.5,658C 156.5,658.667 154.5,658.667 152.5,658C 148.971,655.669 146.971,652.503 146.5,648.5C 141.13,646.122 135.463,645.122 129.5,645.5C 129.5,644.5 129.5,643.5 129.5,642.5C 128.5,642.5 127.5,642.5 126.5,642.5C 126.833,639.5 125.5,638.167 122.5,638.5C 120.193,631.14 119.027,623.474 119,615.5C 117.5,614.667 116.333,613.5 115.5,612C 114.552,611.517 113.552,611.351 112.5,611.5C 112.5,610.5 112.5,609.5 112.5,608.5C 111.5,608.5 110.5,608.5 109.5,608.5C 109.5,607.5 109.5,606.5 109.5,605.5C 106.722,605.978 104.722,604.978 103.5,602.5C 102.311,601.571 100.978,601.238 99.5,601.5C 99.5,600.5 99.5,599.5 99.5,598.5C 95.6052,598.143 94.6052,596.143 96.5,592.5C 100.779,591.726 105.113,591.226 109.5,591C 110.025,590.308 110.692,589.808 111.5,589.5C 111.833,585.333 112.167,581.167 112.5,577C 111.7,568.418 110.7,559.918 109.5,551.5C 109.667,547.833 109.833,544.167 110,540.5C 111.936,538.22 112.769,535.553 112.5,532.5C 111.126,528.364 110.459,524.03 110.5,519.5C 111.815,511.91 112.649,504.243 113,496.5C 113.85,494.99 114.683,493.49 115.5,492C 114.079,490.581 113.079,488.914 112.5,487C 113.818,485.01 115.152,483.01 116.5,481C 117.448,480.517 118.448,480.351 119.5,480.5C 118.728,470.277 118.394,460.11 118.5,450C 121.189,444.937 123.689,439.771 126,434.5C 126.333,428.167 126.667,421.833 127,415.5C 127.667,414.833 128.333,414.167 129,413.5C 129.333,410.167 129.667,406.833 130,403.5C 132.103,401.697 132.936,399.364 132.5,396.5C 133.833,396.5 135.167,396.5 136.5,396.5C 136.5,393.167 136.5,389.833 136.5,386.5C 137.5,386.5 138.5,386.5 139.5,386.5C 139.337,384.143 139.503,381.81 140,379.5C 143.16,374.338 146.326,369.171 149.5,364C 151.974,359.163 153.474,353.996 154,348.5C 155.667,345.833 157.333,343.167 159,340.5C 159.494,338.866 159.66,337.199 159.5,335.5C 160.833,335.5 162.167,335.5 163.5,335.5C 163.5,334.167 163.5,332.833 163.5,331.5C 164.5,331.5 165.5,331.5 166.5,331.5C 168.595,327.468 169.928,323.134 170.5,318.5C 171.5,318.5 172.5,318.5 173.5,318.5C 175.671,314.328 177.005,309.828 177.5,305C 177.157,301.435 176.491,297.935 175.5,294.5C 174.914,294.291 174.414,293.957 174,293.5C 173.502,290.518 173.335,287.518 173.5,284.5C 172.5,284.5 171.5,284.5 170.5,284.5C 170.337,282.143 170.503,279.81 171,277.5C 171.689,276.643 172.522,275.977 173.5,275.5C 176.652,277.121 179.985,278.121 183.5,278.5C 183.5,279.5 183.5,280.5 183.5,281.5C 184.5,281.5 185.5,281.5 186.5,281.5C 186.5,282.5 186.5,283.5 186.5,284.5C 188.674,284.92 190.674,284.92 192.5,284.5C 195.762,281.975 197.429,278.642 197.5,274.5C 200.833,273.5 204.167,272.5 207.5,271.5C 208.06,268.287 209.227,265.287 211,262.5C 212.675,261.405 213.842,259.905 214.5,258C 215.448,257.517 216.448,257.351 217.5,257.5C 217.5,256.5 217.5,255.5 217.5,254.5C 218.5,254.5 219.5,254.5 220.5,254.5C 220.819,244.2 220.986,233.867 221,223.5C 221.667,222.167 222.667,221.167 224,220.5C 225.8,222.145 227.8,223.478 230,224.5C 230.483,225.448 230.649,226.448 230.5,227.5C 233.411,229.467 236.744,230.467 240.5,230.5C 240.5,229.5 240.5,228.5 240.5,227.5C 241.833,227.5 243.167,227.5 244.5,227.5C 244.5,226.167 244.5,224.833 244.5,223.5C 245.5,223.5 246.5,223.5 247.5,223.5C 247.5,222.5 247.5,221.5 247.5,220.5C 250.187,220.664 252.854,220.497 255.5,220C 260.21,214.908 265.376,210.408 271,206.5C 271.483,205.552 271.649,204.552 271.5,203.5C 272.5,203.5 273.5,203.5 274.5,203.5C 274.5,202.5 274.5,201.5 274.5,200.5C 275.5,200.5 276.5,200.5 277.5,200.5C 277.351,199.448 277.517,198.448 278,197.5C 279.999,195.747 282.165,194.413 284.5,193.5C 284.5,192.5 284.5,191.5 284.5,190.5C 285.833,190.5 287.167,190.5 288.5,190.5C 287.994,186.993 288.66,183.826 290.5,181C 297.146,182.868 304.146,183.702 311.5,183.5C 311.5,182.5 311.5,181.5 311.5,180.5C 314.833,180.5 318.167,180.5 321.5,180.5C 321.393,182.903 322.393,184.736 324.5,186C 327.489,188.628 330.822,190.961 334.5,193C 337.181,193.664 339.515,192.997 341.5,191C 345.152,190.501 348.818,190.335 352.5,190.5C 353.075,195.606 351.741,200.106 348.5,204C 349.337,205.011 349.67,206.178 349.5,207.5C 353.437,207.207 357.27,207.54 361,208.5C 361.667,210.167 361.667,211.833 361,213.5C 358.212,216.45 356.045,219.783 354.5,223.5C 355.246,224.736 355.579,226.07 355.5,227.5C 359.893,229.429 364.559,230.429 369.5,230.5C 369.5,226.167 369.5,221.833 369.5,217.5C 370.5,217.5 371.5,217.5 372.5,217.5C 374.61,213.327 375.943,208.827 376.5,204C 380.612,202.905 383.945,200.572 386.5,197C 388.615,196.443 390.615,195.609 392.5,194.5C 395.071,195.728 396.405,197.728 396.5,200.5C 403.376,202.351 410.043,204.685 416.5,207.5C 416.5,208.5 416.5,209.5 416.5,210.5C 417.5,210.5 418.5,210.5 419.5,210.5C 419.5,211.5 419.5,212.5 419.5,213.5C 423.281,212.789 426.281,213.955 428.5,217C 436.001,216.67 439.667,220.17 439.5,227.5C 437.641,227.461 436.308,228.294 435.5,230C 433.527,230.495 431.527,230.662 429.5,230.5C 429.5,231.5 429.5,232.5 429.5,233.5C 428.5,233.5 427.5,233.5 426.5,233.5C 426.092,239.353 425.092,245.02 423.5,250.5C 418.913,252.544 414.246,254.71 409.5,257C 405.324,257.427 401.158,257.927 397,258.5C 392.197,257.715 387.363,257.382 382.5,257.5C 382.5,256.5 382.5,255.5 382.5,254.5C 380.133,253.836 378.133,252.503 376.5,250.5C 375.542,252.624 374.375,254.624 373,256.5C 372.887,262.165 371.554,267.499 369,272.5C 368.385,274.116 367.385,275.449 366,276.5C 365.506,278.134 365.34,279.801 365.5,281.5C 364.5,281.5 363.5,281.5 362.5,281.5C 362.5,282.5 362.5,283.5 362.5,284.5C 358.298,286.895 353.632,288.395 348.5,289C 346.305,292.128 343.972,295.128 341.5,298C 340.552,298.483 339.552,298.649 338.5,298.5C 338.5,299.5 338.5,300.5 338.5,301.5C 334.09,303.641 329.757,305.974 325.5,308.5C 325.5,309.5 325.5,310.5 325.5,311.5C 324.167,311.5 322.833,311.5 321.5,311.5C 321.5,312.833 321.5,314.167 321.5,315.5C 320.5,315.5 319.5,315.5 318.5,315.5C 315.519,321.128 312.186,326.461 308.5,331.5C 305.5,331.167 304.167,332.5 304.5,335.5C 303.5,335.5 302.5,335.5 301.5,335.5C 299.192,339.043 298.025,343.043 298,347.5C 295.293,349.936 292.127,351.436 288.5,352C 287.663,353.011 287.33,354.178 287.5,355.5C 286.5,355.5 285.5,355.5 284.5,355.5C 283.439,358.864 282.439,362.197 281.5,365.5C 280.167,365.5 278.833,365.5 277.5,365.5C 277.64,370.368 275.807,374.368 272,377.5C 270.974,382.785 270.307,388.118 270,393.5C 267.834,395.121 265.334,395.955 262.5,396C 261.331,398.007 260.665,400.173 260.5,402.5C 259.5,402.5 258.5,402.5 257.5,402.5C 257.808,404.924 257.474,407.257 256.5,409.5C 254.842,411.323 253.009,412.99 251,414.5C 251.697,422.501 249.697,429.501 245,435.5C 244.697,439.894 244.03,444.227 243,448.5C 240.739,454.406 238.073,460.073 235,465.5C 234.787,473.876 234.121,482.21 233,490.5C 231.414,494.218 229.748,497.885 228,501.5C 227.333,525.167 227.333,548.833 228,572.5C 228.667,573.833 229.333,575.167 230,576.5C 230.333,581.167 230.667,585.833 231,590.5C 231.667,591.167 232.333,591.833 233,592.5C 233.991,599.379 235.491,606.045 237.5,612.5C 238.5,612.5 239.5,612.5 240.5,612.5C 241.218,619.163 239.385,624.829 235,629.5C 234.187,631.436 233.687,633.436 233.5,635.5C 237.46,636.127 239.794,638.46 240.5,642.5C 241.822,642.33 242.989,642.663 244,643.5C 246.49,649.16 248.824,654.827 251,660.5C 251.689,661.357 252.522,662.023 253.5,662.5C 256.22,669.607 259.72,676.274 264,682.5C 264.49,683.793 264.657,685.127 264.5,686.5C 265.5,686.5 266.5,686.5 267.5,686.5C 267.5,687.5 267.5,688.5 267.5,689.5C 268.822,689.33 269.989,689.663 271,690.5C 271.498,693.482 271.665,696.482 271.5,699.5C 272.5,699.5 273.5,699.5 274.5,699.5C 274.5,700.833 274.5,702.167 274.5,703.5C 275.5,703.5 276.5,703.5 277.5,703.5C 277.634,708.842 279.134,713.842 282,718.5C 283.171,719.893 284.671,720.727 286.5,721C 287.622,723.124 289.122,724.957 291,726.5C 291.49,727.793 291.657,729.127 291.5,730.5C 292.5,730.5 293.5,730.5 294.5,730.5C 294.5,731.5 294.5,732.5 294.5,733.5C 298.157,734.313 300.824,736.479 302.5,740C 307.46,740.073 309.46,742.573 308.5,747.5C 309.5,747.5 310.5,747.5 311.5,747.5C 311.608,750.382 312.774,752.715 315,754.5C 315.495,756.473 315.662,758.473 315.5,760.5C 318.833,760.833 322.167,761.167 325.5,761.5C 324.081,752.047 327.247,749.714 335,754.5C 335.495,756.473 335.662,758.473 335.5,760.5C 336.5,760.5 337.5,760.5 338.5,760.5C 337.697,764.169 338.864,766.836 342,768.5C 345.573,775.236 349.739,781.57 354.5,787.5C 355.833,787.5 357.167,787.5 358.5,787.5C 358.5,788.833 358.5,790.167 358.5,791.5C 361.723,793.61 365.39,794.61 369.5,794.5C 369.281,793.325 369.614,792.325 370.5,791.5C 372.991,791.091 374.991,789.924 376.5,788C 379.329,787.952 381.663,786.952 383.5,785C 385.473,784.505 387.473,784.338 389.5,784.5C 389.5,783.5 389.5,782.5 389.5,781.5C 392.786,780.793 396.119,780.46 399.5,780.5C 399.663,782.857 399.497,785.19 399,787.5C 396.774,789.285 395.608,791.618 395.5,794.5C 394.5,794.5 393.5,794.5 392.5,794.5C 392.5,795.5 392.5,796.5 392.5,797.5C 391.5,797.5 390.5,797.5 389.5,797.5C 389.978,800.278 388.978,802.278 386.5,803.5C 385.52,806.086 385.187,808.753 385.5,811.5C 391.822,812.431 396.322,815.764 399,821.5C 399.333,824.5 399.667,827.5 400,830.5C 402.782,832.821 405.282,832.321 407.5,829C 414.856,828.169 422.189,828.335 429.5,829.5C 432.28,830.713 434.946,832.213 437.5,834C 439.473,834.495 441.473,834.662 443.5,834.5C 443.5,835.833 443.5,837.167 443.5,838.5C 453.476,839.767 463.476,840.934 473.5,842C 475.652,843.413 477.986,844.246 480.5,844.5C 480.5,845.833 480.5,847.167 480.5,848.5C 483.94,849.789 487.44,850.789 491,851.5C 493.451,851.312 495.618,850.479 497.5,849C 505.5,848.333 513.5,848.333 521.5,849C 524.51,850.921 527.844,851.921 531.5,852C 533.675,855.045 536.675,856.211 540.5,855.5C 540.5,856.5 540.5,857.5 540.5,858.5C 543.579,860.188 546.912,861.521 550.5,862.5C 551.195,864.978 552.695,866.978 555,868.5C 557.75,866.282 560.917,864.949 564.5,864.5C 565.137,862.697 566.303,861.364 568,860.5C 568.494,858.866 568.66,857.199 568.5,855.5C 569.5,855.5 570.5,855.5 571.5,855.5C 571.5,853.167 571.5,850.833 571.5,848.5C 576.52,849.127 581.187,848.294 585.5,846C 588,845.833 590.5,845.667 593,845.5C 598.405,845.833 603.572,846.833 608.5,848.5C 608.5,849.5 608.5,850.5 608.5,851.5C 611.5,851.167 612.833,852.5 612.5,855.5C 613.5,855.5 614.5,855.5 615.5,855.5C 616.704,857.734 617.87,860.067 619,862.5C 620.696,856.624 623.696,851.624 628,847.5C 629.05,844.124 630.55,841.124 632.5,838.5C 633.5,838.5 634.5,838.5 635.5,838.5C 635.5,837.167 635.5,835.833 635.5,834.5C 637.831,834.502 639.831,833.669 641.5,832C 647.167,831.667 652.833,831.333 658.5,831C 659.308,829.294 660.641,828.461 662.5,828.5C 662.5,827.167 662.5,825.833 662.5,824.5C 664.833,824.5 667.167,824.5 669.5,824.5C 669.5,823.5 669.5,822.5 669.5,821.5C 673.302,822.12 676.635,821.286 679.5,819C 681.74,818.023 684.073,817.523 686.5,817.5C 686.5,816.5 686.5,815.5 686.5,814.5C 689.411,812.533 692.744,811.533 696.5,811.5C 696.5,810.167 696.5,808.833 696.5,807.5C 697.552,807.649 698.552,807.483 699.5,807C 701.714,805.191 704.048,803.524 706.5,802C 707.793,801.51 709.127,801.343 710.5,801.5C 710.22,798.612 711.553,797.112 714.5,797C 715.726,794.473 717.392,792.306 719.5,790.5C 720.466,788.604 720.799,786.604 720.5,784.5C 723.665,783.964 726.331,784.797 728.5,787C 732.833,787.667 737.167,787.667 741.5,787C 738.037,784.805 736.704,781.639 737.5,777.5C 738.5,777.5 739.5,777.5 740.5,777.5C 742.493,773.343 741.326,769.677 737,766.5C 736.517,765.552 736.351,764.552 736.5,763.5C 735.5,763.5 734.5,763.5 733.5,763.5C 733.5,762.5 733.5,761.5 733.5,760.5C 732.5,760.5 731.5,760.5 730.5,760.5C 730.5,759.167 730.5,757.833 730.5,756.5C 729.5,756.5 728.5,756.5 727.5,756.5C 727.261,754.533 727.594,752.699 728.5,751C 733.167,750.333 737.833,750.333 742.5,751C 745.731,752.647 748.731,754.647 751.5,757C 754.571,757.147 757.404,757.98 760,759.5C 761.786,758.088 763.286,756.421 764.5,754.5C 768.696,753.975 770.696,751.641 770.5,747.5C 771.822,747.67 772.989,747.337 774,746.5C 776.532,744.09 778.032,741.09 778.5,737.5C 780.204,734.951 782.204,732.617 784.5,730.5C 782.02,727.639 781.02,724.306 781.5,720.5C 786.833,720.5 792.167,720.5 797.5,720.5C 797.338,718.473 797.505,716.473 798,714.5C 799.011,713.663 800.178,713.33 801.5,713.5C 801.042,710.606 801.709,708.106 803.5,706C 802.045,703.984 800.045,703.151 797.5,703.5C 797.5,700.167 797.5,696.833 797.5,693.5C 800.518,693.665 803.518,693.498 806.5,693C 808.156,691.171 810.156,689.837 812.5,689C 814.031,685.354 815.197,681.521 816,677.5C 817.699,676.594 819.533,676.261 821.5,676.5C 823.633,673.114 824.966,669.281 825.5,665C 826.009,663.831 826.842,662.998 828,662.5C 828.333,659.833 828.667,657.167 829,654.5C 829.667,653.833 830.333,653.167 831,652.5C 831.069,647.973 832.235,643.807 834.5,640C 834.898,634.541 835.065,629.041 835,623.5C 836.087,620.309 836.92,616.975 837.5,613.5C 838.736,612.754 840.07,612.421 841.5,612.5C 841.284,610.319 842.117,608.653 844,607.5C 844.333,603.5 844.667,599.5 845,595.5C 847.456,591.436 849.29,587.103 850.5,582.5C 851.666,563.842 851.833,545.176 851,526.5C 849.692,524.866 848.858,523.032 848.5,521C 850.307,518.334 851.974,515.501 853.5,512.5C 850.928,503.944 848.928,495.277 847.5,486.5C 846.029,485.619 845.196,484.286 845,482.5C 844.274,475.131 844.441,467.798 845.5,460.5C 846.5,460.5 847.5,460.5 848.5,460.5C 848.34,458.801 848.506,457.134 849,455.5C 853.818,452.379 853.651,449.545 848.5,447C 844.858,446.477 841.524,445.31 838.5,443.5C 838.5,442.167 838.5,440.833 838.5,439.5C 837.167,439.5 835.833,439.5 834.5,439.5C 834.949,437.023 834.283,435.023 832.5,433.5C 831.507,428.88 831.173,424.214 831.5,419.5C 830.5,419.5 829.5,419.5 828.5,419.5C 828.338,417.176 827.172,415.509 825,414.5C 824.506,412.866 824.34,411.199 824.5,409.5C 823.5,409.5 822.5,409.5 821.5,409.5C 822.201,405.181 821.034,401.514 818,398.5C 817.819,393.736 816.652,389.403 814.5,385.5C 813.5,385.5 812.5,385.5 811.5,385.5C 808.912,381.326 806.579,376.993 804.5,372.5C 803.5,372.5 802.5,372.5 801.5,372.5C 799.498,368.104 798.164,363.437 797.5,358.5C 796.5,358.5 795.5,358.5 794.5,358.5C 794.5,357.5 794.5,356.5 794.5,355.5C 793.5,355.5 792.5,355.5 791.5,355.5C 791.5,354.5 791.5,353.5 791.5,352.5C 790.167,352.5 788.833,352.5 787.5,352.5C 787.5,351.167 787.5,349.833 787.5,348.5C 786.5,348.5 785.5,348.5 784.5,348.5C 784.5,347.5 784.5,346.5 784.5,345.5C 783.178,345.67 782.011,345.337 781,344.5C 778.719,341.937 777.552,338.937 777.5,335.5C 776.5,335.5 775.5,335.5 774.5,335.5C 774.5,333.167 774.5,330.833 774.5,328.5C 771.002,327.219 768.002,325.052 765.5,322C 764.5,321.667 763.5,321.333 762.5,321C 756.961,315.311 751.628,309.311 746.5,303C 743.607,301.851 740.607,301.351 737.5,301.5C 737.581,296.617 735.247,294.284 730.5,294.5C 730.5,293.5 730.5,292.5 730.5,291.5C 723.76,289.268 718.26,285.268 714,279.5C 713.989,276.341 713.155,273.507 711.5,271C 705.128,268.602 698.462,267.269 691.5,267C 683.769,263.484 676.436,259.317 669.5,254.5C 669.67,253.178 669.337,252.011 668.5,251C 665.5,250.667 662.5,250.333 659.5,250C 654.096,246.136 650.429,247.47 648.5,254C 645.518,254.498 642.518,254.665 639.5,254.5C 639.662,252.473 639.495,250.473 639,248.5C 636.595,245.999 634.095,243.499 631.5,241C 625.204,241.689 619.871,239.856 615.5,235.5C 613.257,234.526 610.924,234.192 608.5,234.5C 607.677,237.351 606.344,240.018 604.5,242.5C 602.926,243.631 601.259,243.798 599.5,243C 598.692,241.294 597.359,240.461 595.5,240.5C 595.649,239.448 595.483,238.448 595,237.5C 593.168,235.37 591.334,233.203 589.5,231C 584.833,230.667 580.167,230.333 575.5,230C 572.937,227.909 569.937,226.742 566.5,226.5C 555.194,227.624 543.861,227.791 532.5,227C 530.884,226.385 529.551,225.385 528.5,224C 524.329,223.883 520.662,222.717 517.5,220.5C 517.5,219.5 517.5,218.5 517.5,217.5C 516.5,217.5 515.5,217.5 514.5,217.5C 514.5,216.167 514.5,214.833 514.5,213.5C 512.005,212.801 509.672,211.801 507.5,210.5C 507.665,213.85 507.498,217.183 507,220.5C 504.735,221.916 503.569,223.916 503.5,226.5C 497.432,229.223 491.098,231.39 484.5,233C 477.833,233.667 471.167,233.667 464.5,233C 462.408,231.075 459.908,229.908 457,229.5C 455.278,226.721 454.111,223.721 453.5,220.5C 448.772,218.369 443.772,216.869 438.5,216C 436.821,213.435 436.154,210.602 436.5,207.5C 439.55,205.126 442.884,202.959 446.5,201C 447.793,200.51 449.127,200.343 450.5,200.5C 450.666,191.494 450.5,182.494 450,173.5C 446.682,169.096 443.515,164.596 440.5,160C 442.236,158.053 444.07,156.219 446,154.5C 446.499,148.509 446.666,142.509 446.5,136.5C 442.524,135.35 440.69,132.684 441,128.5C 443.266,127.044 445.766,126.21 448.5,126C 455.27,117.289 464.27,113.622 475.5,115C 476.308,114.692 476.975,114.192 477.5,113.5C 484.142,112.669 490.809,112.169 497.5,112C 498.328,111.085 499.328,110.419 500.5,110C 518.509,109.167 536.509,109.334 554.5,110.5C 557.421,113.263 560.087,113.096 562.5,110C 568.5,109.333 574.5,109.333 580.5,110C 582.044,110.29 583.377,110.956 584.5,112C 593.5,112.333 602.5,112.667 611.5,113C 615.571,114.972 619.904,116.306 624.5,117C 626.167,118.667 627.833,120.333 629.5,122C 632.997,122.912 635.997,124.578 638.5,127C 639.412,130.224 639.079,133.391 637.5,136.5 Z M 637.5,136.5 C 637.013,137.473 636.513,138.473 636,139.5C 635.275,137.843 635.775,136.843 637.5,136.5 Z"/></g>
<g><path style="opacity:0.981" fill="#050302" d="M 881.5,442.5 C 879.167,444.167 877.167,446.167 875.5,448.5C 871.087,450.463 866.42,450.963 861.5,450C 853.972,446.072 846.639,441.906 839.5,437.5C 835.281,431.692 834.614,425.525 837.5,419C 834.217,417.439 831.383,415.273 829,412.5C 823.703,403.444 820.536,393.777 819.5,383.5C 815.579,384.07 813.412,382.403 813,378.5C 805.596,371.697 800.763,363.363 798.5,353.5C 795.888,352.221 793.555,350.555 791.5,348.5C 790.914,348.709 790.414,349.043 790,349.5C 789.79,345.624 787.79,343.29 784,342.5C 779.813,336.792 776.646,330.459 774.5,323.5C 763.603,317.113 754.437,308.113 747,296.5C 745.622,298.213 743.955,299.547 742,300.5C 741.808,298.423 741.308,296.423 740.5,294.5C 732.897,290.116 725.73,285.116 719,279.5C 716.294,275.215 715.127,270.548 715.5,265.5C 698.179,267.004 683.513,261.504 671.5,249C 664.299,246.909 657.132,244.742 650,242.5C 647.393,245.293 645.727,248.626 645,252.5C 642.5,248.167 640,243.833 637.5,239.5C 633.522,236.421 629.188,235.754 624.5,237.5C 624.5,236.5 624.5,235.5 624.5,234.5C 618.131,231.987 611.464,230.321 604.5,229.5C 604.17,233.342 603.337,237.009 602,240.5C 599.533,236.4 596.699,232.566 593.5,229C 594.167,228.667 594.833,228.333 595.5,228C 590.37,225.996 585.37,226.163 580.5,228.5C 579.614,227.675 579.281,226.675 579.5,225.5C 575.05,224.943 571.05,223.276 567.5,220.5C 552.986,225.988 538.653,225.488 524.5,219C 516.892,213.722 512.058,206.555 510,197.5C 506.213,195.655 504.046,196.822 503.5,201C 506.114,209.701 504.447,217.368 498.5,224C 496.5,225 494.5,226 492.5,227C 485.677,227.927 478.844,228.76 472,229.5C 468.254,229.675 464.754,228.842 461.5,227C 459.117,223.735 457.117,220.235 455.5,216.5C 450.066,214.966 444.732,213.133 439.5,211C 444.419,207.958 449.252,204.791 454,201.5C 454.121,189.777 453.288,178.11 451.5,166.5C 449.167,164.5 446.833,162.5 444.5,160.5C 446.743,159.526 449.076,159.192 451.5,159.5C 451.666,152.159 451.5,144.826 451,137.5C 448.904,136.285 449.071,135.451 451.5,135C 449.33,133.414 446.996,132.08 444.5,131C 451.078,130.279 456.078,127.113 459.5,121.5C 467.349,119.212 475.349,117.712 483.5,117C 482.833,116.667 482.167,116.333 481.5,116C 491.931,115.706 502.265,114.539 512.5,112.5C 516.012,113.102 519.512,113.769 523,114.5C 526.4,113.311 529.9,112.645 533.5,112.5C 541.775,112.567 549.775,113.9 557.5,116.5C 558.737,116.444 559.737,115.944 560.5,115C 568.167,114.333 575.833,114.333 583.5,115C 586.264,115.532 588.93,116.366 591.5,117.5C 595.299,115.578 599.299,115.078 603.5,116C 609.951,117.196 616.284,118.863 622.5,121C 625.311,122.644 627.644,124.81 629.5,127.5C 631.444,128.189 633.444,128.689 635.5,129C 634.333,130.833 633.167,132.667 632,134.5C 628.012,149.452 624.179,164.452 620.5,179.5C 621.85,180.95 623.516,181.617 625.5,181.5C 631.168,166.003 637.335,150.67 644,135.5C 648.501,129.777 654.335,127.61 661.5,129C 668.167,131.667 674.833,134.333 681.5,137C 684.07,139.067 686.07,141.567 687.5,144.5C 689.369,145.624 691.369,146.457 693.5,147C 692,148.5 690.5,150 689,151.5C 683.147,166.532 677.314,181.532 671.5,196.5C 675.235,197.301 678.901,198.301 682.5,199.5C 684.656,178.506 695.989,165.339 716.5,160C 734.939,158.302 749.606,164.802 760.5,179.5C 766.209,179.766 771.542,181.266 776.5,184C 792.284,195.45 807.784,207.283 823,219.5C 826.517,226.336 826.184,233.003 822,239.5C 819.568,242.688 816.901,245.688 814,248.5C 813.312,249.332 813.479,249.998 814.5,250.5C 821.397,247.701 828.397,245.201 835.5,243C 837.241,241.38 839.075,239.88 841,238.5C 841.543,240.631 842.376,242.631 843.5,244.5C 847.772,246.774 851.772,249.441 855.5,252.5C 858.388,250.71 861.388,249.543 864.5,249C 862.637,251.364 860.971,253.864 859.5,256.5C 863.921,261.677 866.421,267.677 867,274.5C 873.255,277.71 879.422,281.044 885.5,284.5C 878.131,285.807 870.798,287.307 863.5,289C 862.524,291.147 862.691,293.314 864,295.5C 874.341,296.802 884.174,299.802 893.5,304.5C 899.422,308.995 903.922,314.662 907,321.5C 908.333,322.167 909.667,322.833 911,323.5C 910.785,326.811 910.785,330.144 911,333.5C 913.416,336.663 915.582,339.996 917.5,343.5C 915.5,343.833 913.5,344.167 911.5,344.5C 916.453,345.979 920.62,348.646 924,352.5C 928.578,360.305 931.412,368.638 932.5,377.5C 934.91,376.937 937.243,376.437 939.5,376C 937.817,379.01 936.15,382.01 934.5,385C 937.634,387.806 940.467,390.972 943,394.5C 943.667,398.167 943.667,401.833 943,405.5C 939.597,412.969 936.764,420.636 934.5,428.5C 930.236,427.964 926.903,429.631 924.5,433.5C 923.354,432.855 922.354,432.022 921.5,431C 912.22,429.074 903.22,426.24 894.5,422.5C 889.361,428.64 885.027,435.307 881.5,442.5 Z M 637.5,136.5 C 635.775,136.843 635.275,137.843 636,139.5C 636.513,138.473 637.013,137.473 637.5,136.5 Z"/></g>
<g><path style="opacity:1" fill="#e4550b" d="M 508.5,126.5 C 511.119,126.232 513.619,126.565 516,127.5C 516.667,133.167 516.667,138.833 516,144.5C 506.211,147.239 496.378,149.906 486.5,152.5C 485.507,157.12 485.173,161.786 485.5,166.5C 494.412,164.458 503.412,163.291 512.5,163C 514.517,168.71 514.85,174.543 513.5,180.5C 505.076,181.98 496.91,184.314 489,187.5C 488.3,194.907 488.8,202.24 490.5,209.5C 490.43,210.772 490.097,211.938 489.5,213C 484.174,213.88 478.841,214.713 473.5,215.5C 472.228,215.43 471.062,215.097 470,214.5C 466.431,187.925 465.264,161.258 466.5,134.5C 480.621,131.816 494.621,129.149 508.5,126.5 Z"/></g>
<g><path style="opacity:1" fill="#e4550b" d="M 547.5,189.5 C 548.908,193.169 550.575,193.169 552.5,189.5C 554.716,188.797 556.549,187.464 558,185.5C 560.957,166.598 563.124,147.598 564.5,128.5C 571.09,128.189 577.59,128.522 584,129.5C 583.071,145.807 582.071,162.14 581,178.5C 575.667,206.926 559.167,216.426 531.5,207C 527.806,204.313 525.306,200.813 524,196.5C 522.558,188.548 522.225,180.548 523,172.5C 524.485,157.092 526.985,141.925 530.5,127C 536.416,126.193 542.25,126.359 548,127.5C 547.399,144.885 545.899,162.219 543.5,179.5C 543.507,182.592 544.007,185.592 545,188.5C 545.671,189.252 546.504,189.586 547.5,189.5 Z"/></g>
<g><path style="opacity:1" fill="#e4550b" d="M 598.5,129.5 C 604.194,130.472 609.86,131.639 615.5,133C 616.574,133.739 617.241,134.739 617.5,136C 612.566,154.444 607.899,172.944 603.5,191.5C 613.203,193.315 622.87,195.315 632.5,197.5C 640.201,180.761 647.367,163.761 654,146.5C 654.68,144.487 656.013,143.154 658,142.5C 662.833,144.333 667.667,146.167 672.5,148C 673.516,148.519 674.182,149.353 674.5,150.5C 667.559,168.323 660.225,185.99 652.5,203.5C 661.427,207.089 670.427,210.589 679.5,214C 680.022,214.561 680.355,215.228 680.5,216C 677.188,222.853 678.188,223.853 683.5,219C 684.833,218.333 686.167,218.333 687.5,219C 690.45,223.618 693.784,227.952 697.5,232C 705.772,234.397 708.939,231.23 707,222.5C 703.23,216.397 699.897,210.063 697,203.5C 696.146,190.381 701.646,180.881 713.5,175C 726.967,171.821 738.467,175.321 748,185.5C 750.969,190.295 751.302,195.295 749,200.5C 747.237,205.041 744.737,209.041 741.5,212.5C 736.426,210.214 731.592,207.547 727,204.5C 727.534,200.733 728.7,197.066 730.5,193.5C 728.084,189.751 725.251,189.751 722,193.5C 720.517,196.702 720.183,200.036 721,203.5C 724.257,209.681 727.257,216.015 730,222.5C 731.882,239.282 724.548,249.282 708,252.5C 693.513,250.338 682.513,243.005 675,230.5C 674.519,232.478 673.353,233.811 671.5,234.5C 654.174,229.668 637.174,224.168 620.5,218C 607.167,216 593.833,214 580.5,212C 578.59,211.592 577.59,210.425 577.5,208.5C 584.053,181.95 591.053,155.617 598.5,129.5 Z"/></g>
<g><path style="opacity:1" fill="#311302" d="M 579.5,131.5 C 581.976,133.121 582.142,135.121 580,137.5C 579.505,135.527 579.338,133.527 579.5,131.5 Z"/></g>
<g><path style="opacity:1" fill="#321503" d="M 530.5,146.5 C 529.662,146.158 529.328,145.492 529.5,144.5C 529.305,140.085 529.805,135.751 531,131.5C 531.251,136.501 531.084,141.501 530.5,146.5 Z"/></g>
<g><path style="opacity:1" fill="#7e2e06" d="M 529.5,144.5 C 529.328,145.492 529.662,146.158 530.5,146.5C 530.719,147.675 530.386,148.675 529.5,149.5C 528.212,147.701 528.212,146.035 529.5,144.5 Z"/></g>
<g><path style="opacity:0.981" fill="#050302" d="M 327.5,771.5 C 327.783,772.289 328.283,772.956 329,773.5C 329.173,767.652 329.673,761.985 330.5,756.5C 335.068,765.301 339.901,773.967 345,782.5C 346.011,783.337 347.178,783.67 348.5,783.5C 347.541,790.595 349.541,791.928 354.5,787.5C 354.98,793.48 358.146,797.147 364,798.5C 374.628,793.262 385.461,788.762 396.5,785C 390.43,792.733 384.763,800.733 379.5,809C 383.048,812.458 387.048,815.458 391.5,818C 396.312,822.101 398.145,827.268 397,833.5C 395.153,838.694 392.653,843.528 389.5,848C 392.181,850.07 395.181,850.736 398.5,850C 401.003,845.149 403.503,840.316 406,835.5C 413.828,829.236 421.994,828.903 430.5,834.5C 431.167,834.167 431.833,833.833 432.5,833.5C 437.484,836.331 442.151,839.665 446.5,843.5C 447.833,842.5 449.167,841.5 450.5,840.5C 451.287,841.242 451.953,842.075 452.5,843C 459.366,843.063 466.033,844.23 472.5,846.5C 473.442,846.392 474.275,846.059 475,845.5C 479.634,849.132 483.967,853.132 488,857.5C 492.104,854.947 496.437,852.947 501,851.5C 521.187,850.588 538.52,857.254 553,871.5C 557.833,870.333 562.667,869.167 567.5,868C 568.423,865.959 568.756,863.792 568.5,861.5C 571.292,861.548 573.125,860.215 574,857.5C 574.495,855.527 574.662,853.527 574.5,851.5C 580.535,851.158 586.535,850.492 592.5,849.5C 604.504,849.501 612.337,855.167 616,866.5C 617.409,874.914 616.242,882.914 612.5,890.5C 607.805,892.339 604.805,895.672 603.5,900.5C 597.952,900.685 593.119,903.018 589,907.5C 587.957,904.243 587.457,900.91 587.5,897.5C 579.078,896.247 573.078,891.747 569.5,884C 564,880.5 558.5,877 553,873.5C 552.667,876.5 552.333,879.5 552,882.5C 548.454,889.766 544.288,896.6 539.5,903C 547.934,923.064 543.934,940.397 527.5,955C 509.912,965.306 492.579,964.972 475.5,954C 473.356,951.021 471.022,948.188 468.5,945.5C 452.757,956.889 436.757,957.389 420.5,947C 418.866,946.506 417.199,946.34 415.5,946.5C 415.767,944.029 414.767,942.362 412.5,941.5C 408.429,940.753 404.429,939.753 400.5,938.5C 399.808,939.025 399.308,939.692 399,940.5C 383.472,933.524 367.305,927.024 350.5,921C 340.864,914.51 330.864,908.51 320.5,903C 316.03,899.259 311.03,896.259 305.5,894C 301.569,891.868 298.236,889.035 295.5,885.5C 292.334,884.766 289.334,883.6 286.5,882C 279.873,876.38 274.373,869.88 270,862.5C 268.959,857.56 269.626,852.894 272,848.5C 276.833,843.667 281.667,838.833 286.5,834C 276.546,837.433 266.546,841.1 256.5,845C 255,846.5 253.5,848 252,849.5C 250.991,847.975 250.491,846.308 250.5,844.5C 245.079,842.775 240.079,840.108 235.5,836.5C 227.272,842.598 225.939,841.598 231.5,833.5C 227.079,828.323 224.579,822.323 224,815.5C 217.245,811.872 210.412,808.372 203.5,805C 205.833,804 208.167,803 210.5,802C 207.734,800.533 205.234,798.7 203,796.5C 195.249,787.31 187.749,777.977 180.5,768.5C 177.559,771.129 176.893,770.462 178.5,766.5C 176.5,765.667 174.5,764.833 172.5,764C 174.895,762.987 176.561,761.32 177.5,759C 176.631,753.871 176.298,748.704 176.5,743.5C 171.898,743.616 168.065,741.949 165,738.5C 161.181,731.532 157.348,724.532 153.5,717.5C 145.204,714.568 136.871,711.735 128.5,709C 134.167,706.167 139.833,703.333 145.5,700.5C 142.198,695.062 139.865,689.228 138.5,683C 138.883,677.901 140.883,673.567 144.5,670C 153.411,664.247 163.078,661.58 173.5,662C 175.421,662.36 177.088,663.194 178.5,664.5C 182.303,662.262 186.303,660.596 190.5,659.5C 190.34,654.434 190.84,649.434 192,644.5C 194.194,647.554 195.861,650.888 197,654.5C 199.855,650.311 203.355,646.811 207.5,644C 206.637,641.638 204.97,640.138 202.5,639.5C 197.497,638.334 192.497,638.334 187.5,639.5C 187.515,643.56 187.015,647.56 186,651.5C 183.913,648.327 182.079,644.994 180.5,641.5C 173.173,640.942 165.84,641.275 158.5,642.5C 157.947,646.719 156.78,650.719 155,654.5C 152.167,651 149.333,647.5 146.5,644C 139.252,644.788 133.085,642.621 128,637.5C 126.725,635.283 125.725,632.949 125,630.5C 123.817,623.751 122.317,617.084 120.5,610.5C 113.5,605.667 106.5,600.833 99.5,596C 105.283,594.193 111.283,593.359 117.5,593.5C 116.085,588.098 115.085,582.598 114.5,577C 114.657,574.019 115.657,571.352 117.5,569C 114.151,563.489 112.818,557.489 113.5,551C 112.869,544.396 114.203,538.229 117.5,532.5C 116.469,530.618 115.635,528.618 115,526.5C 114.333,518.5 114.333,510.5 115,502.5C 118.003,496.665 122.503,492.331 128.5,489.5C 128.291,488.914 127.957,488.414 127.5,488C 124.044,487.82 120.711,487.153 117.5,486C 119.241,484.38 121.075,482.88 123,481.5C 122.357,475.897 121.857,470.23 121.5,464.5C 121.606,460.974 121.939,457.474 122.5,454C 122.156,452.635 121.489,451.468 120.5,450.5C 121.833,449.5 123.167,448.5 124.5,447.5C 125.907,443.933 127.907,440.766 130.5,438C 129.552,437.517 128.552,437.351 127.5,437.5C 128.937,431.273 129.77,424.94 130,418.5C 131.792,413.206 133.459,407.872 135,402.5C 135.953,400.545 137.287,398.878 139,397.5C 140.581,388.668 143.581,380.335 148,372.5C 149.684,370.649 151.517,368.982 153.5,367.5C 154.184,362.792 155.018,358.126 156,353.5C 158.667,348.167 161.333,342.833 164,337.5C 165.413,335.586 167.247,334.253 169.5,333.5C 172.341,324.818 176.508,316.818 182,309.5C 180.608,298.983 177.775,288.816 173.5,279C 179.488,281.849 185.155,285.515 190.5,290C 191.5,290.667 192.5,290.667 193.5,290C 195.792,286.584 197.959,283.084 200,279.5C 203.158,276.92 206.492,274.587 210,272.5C 213.874,265.95 218.541,259.95 224,254.5C 225.753,247.579 225.92,240.579 224.5,233.5C 224.198,230.941 224.532,228.607 225.5,226.5C 229.499,230.33 233.665,233.997 238,237.5C 241.617,233.761 245.117,229.928 248.5,226C 252.191,223.653 256.191,222.153 260.5,221.5C 267.159,213.174 274.493,205.508 282.5,198.5C 289.069,195.699 292.902,190.699 294,183.5C 295.71,185.38 297.543,187.046 299.5,188.5C 304.047,187.05 308.714,186.216 313.5,186C 315.286,185.215 316.786,184.049 318,182.5C 317.865,184.425 317.698,186.425 317.5,188.5C 324.293,190.147 330.127,193.48 335,198.5C 339.243,196.628 343.41,194.628 347.5,192.5C 347.833,192.833 348.167,193.167 348.5,193.5C 346.378,198.989 345.044,204.656 344.5,210.5C 348.835,210.917 353.168,211.417 357.5,212C 355.343,213.912 353.009,215.579 350.5,217C 350.833,217.333 351.167,217.667 351.5,218C 350.308,220.572 349.308,223.239 348.5,226C 352.126,229.152 356.126,231.819 360.5,234C 362.777,235.142 365.11,235.642 367.5,235.5C 366.48,237.432 366.313,239.432 367,241.5C 368.987,242.218 370.821,243.218 372.5,244.5C 371.737,245.719 370.737,246.719 369.5,247.5C 370.562,250.103 370.728,252.77 370,255.5C 367.73,262.975 365.064,270.309 362,277.5C 357.189,283.272 351.022,285.606 343.5,284.5C 343.477,286.927 342.977,289.26 342,291.5C 335.366,297.646 328.366,303.313 321,308.5C 312.172,319.658 303.005,330.492 293.5,341C 294.777,343.466 294.777,345.966 293.5,348.5C 292.167,347.5 290.833,346.5 289.5,345.5C 287.851,346.648 286.351,347.981 285,349.5C 278.636,360.24 272.303,370.907 266,381.5C 265.86,385.234 266.36,388.901 267.5,392.5C 265.4,392.523 263.567,391.856 262,390.5C 261.5,390.833 261,391.167 260.5,391.5C 258.551,396.563 256.218,401.396 253.5,406C 253.833,406.333 254.167,406.667 254.5,407C 252.023,408.643 249.69,410.476 247.5,412.5C 248.911,416.466 248.577,420.299 246.5,424C 247.022,424.95 247.689,425.784 248.5,426.5C 246.111,427.602 244.277,429.269 243,431.5C 241.578,436.689 240.078,441.856 238.5,447C 239.022,447.95 239.689,448.784 240.5,449.5C 239.24,450.382 238.074,451.382 237,452.5C 236.495,457.844 234.162,462.177 230,465.5C 231.748,478.851 229.582,491.517 223.5,503.5C 224.098,504.795 224.598,506.128 225,507.5C 225.667,515.5 225.667,523.5 225,531.5C 223.833,533.667 222.667,535.833 221.5,538C 222.787,540.071 223.953,542.238 225,544.5C 225.726,553.019 225.56,561.519 224.5,570C 226.281,581.24 228.448,592.406 231,603.5C 231.465,604.931 232.299,606.097 233.5,607C 232.409,609.064 232.242,611.231 233,613.5C 234.973,614.64 236.807,615.973 238.5,617.5C 236.955,618.452 235.288,618.785 233.5,618.5C 233.392,629.711 227.725,635.377 216.5,635.5C 216.36,637.124 217.027,638.29 218.5,639C 222.452,638.566 226.452,638.566 230.5,639C 233.787,639.616 236.621,641.116 239,643.5C 247.429,659.365 255.429,675.032 263,690.5C 265.185,691.67 267.351,692.836 269.5,694C 265.96,694.329 264.794,696.162 266,699.5C 273.733,704.3 277.233,711.3 276.5,720.5C 283.414,723.079 288.414,727.746 291.5,734.5C 295.053,737.574 298.053,740.407 300.5,743C 301.549,743.492 302.549,743.326 303.5,742.5C 304.308,744.423 304.808,746.423 305,748.5C 310.782,752.731 313.282,758.397 312.5,765.5C 318.667,764.774 323.667,766.774 327.5,771.5 Z"/></g>
<g><path style="opacity:1" fill="#833007" d="M 547.5,189.5 C 549.167,189.5 550.833,189.5 552.5,189.5C 550.575,193.169 548.908,193.169 547.5,189.5 Z"/></g>
<g><path style="opacity:1" fill="#e4560b" d="M 763.5,194.5 C 765.655,194.372 767.655,194.872 769.5,196C 782.5,205.667 795.5,215.333 808.5,225C 809.899,226.062 810.899,227.395 811.5,229C 809.739,232.431 807.572,235.597 805,238.5C 803.883,240.124 802.383,241.124 800.5,241.5C 795.356,238.604 790.356,235.77 785.5,233C 775.685,245.479 765.185,257.312 754,268.5C 751.443,271.928 749.11,275.595 747,279.5C 746.275,280.059 745.442,280.392 744.5,280.5C 738.469,277.668 733.469,273.668 729.5,268.5C 741.754,252.238 754.42,236.238 767.5,220.5C 762.69,217.594 757.69,214.927 752.5,212.5C 752.167,211.833 751.833,211.167 751.5,210.5C 755.106,204.891 759.106,199.557 763.5,194.5 Z"/></g>
<g><path style="opacity:1" fill="#572208" d="M 641.5,195.5 C 642.675,195.281 643.675,195.614 644.5,196.5C 642.948,197.798 641.948,197.465 641.5,195.5 Z"/></g>
<g><path style="opacity:0.96" fill="#050404" d="M 391.5,197.5 C 393.059,199.608 394.392,201.941 395.5,204.5C 404.411,205.454 411.744,209.288 417.5,216C 423.701,218.286 429.701,220.953 435.5,224C 431.255,226.039 427.088,228.206 423,230.5C 422.257,232.441 422.424,234.274 423.5,236C 419.339,238.985 418.672,242.652 421.5,247C 415.103,248.72 409.103,251.387 403.5,255C 388.028,256.686 377.861,250.186 373,235.5C 372.738,230.55 372.571,225.717 372.5,221C 377.612,217.065 380.279,211.898 380.5,205.5C 381.768,206.428 383.101,206.595 384.5,206C 387.2,203.412 389.533,200.579 391.5,197.5 Z"/></g>
<g><path style="opacity:1" fill="#5b2104" d="M 605.5,203.5 C 607.337,203.639 607.67,204.306 606.5,205.5C 605.702,205.043 605.369,204.376 605.5,203.5 Z"/></g>
<g><path style="opacity:1" fill="#602406" d="M 652.5,216.5 C 654.337,216.639 654.67,217.306 653.5,218.5C 652.702,218.043 652.369,217.376 652.5,216.5 Z"/></g>
<g><path style="opacity:1" fill="#de530b" d="M 394.5,219.5 C 406.696,220.233 410.529,226.233 406,237.5C 398.498,243.572 392.165,242.572 387,234.5C 385.351,227.34 387.851,222.34 394.5,219.5 Z"/></g>
<g><path style="opacity:0.349" fill="#939393" d="M 225.5,226.5 C 224.532,228.607 224.198,230.941 224.5,233.5C 223.362,230.696 223.195,227.696 224,224.5C 224.717,225.044 225.217,225.711 225.5,226.5 Z"/></g>
<g><path style="opacity:1" fill="#92370a" d="M 714.5,236.5 C 716.612,237.44 718.612,238.606 720.5,240C 719.789,241.255 718.956,242.421 718,243.5C 717.383,242.551 717.549,241.718 718.5,241C 714.247,242.244 712.913,240.744 714.5,236.5 Z"/></g>
<g><path style="opacity:1" fill="#291201" d="M 744.5,253.5 C 744.826,250.999 746.159,249.832 748.5,250C 747.295,251.376 745.962,252.542 744.5,253.5 Z"/></g>
<g><path style="opacity:0.99" fill="#ececec" d="M 787.5,251.5 C 791.145,252.987 794.812,254.487 798.5,256C 795.048,257.226 791.715,258.726 788.5,260.5C 783.56,258.035 783.226,255.035 787.5,251.5 Z"/></g>
<g><path style="opacity:1" fill="#1d0a00" d="M 744.5,253.5 C 743.527,256.135 741.86,258.135 739.5,259.5C 740.419,256.911 742.086,254.911 744.5,253.5 Z"/></g>
<g><path style="opacity:1" fill="#e3550b" d="M 834.5,257.5 C 839.825,258.08 844.325,260.414 848,264.5C 849.333,266.5 850.667,268.5 852,270.5C 852.667,272.5 852.667,274.5 852,276.5C 848.827,283.671 844.827,290.337 840,296.5C 829.284,309.548 818.951,322.881 809,336.5C 807.611,338.227 805.944,339.561 804,340.5C 798.635,335.636 793.802,330.303 789.5,324.5C 792.608,319.888 796.275,315.722 800.5,312C 795.614,308.271 790.614,304.771 785.5,301.5C 782.4,302.758 779.4,304.258 776.5,306C 775.167,306.667 773.833,306.667 772.5,306C 768.667,301.5 764.833,297 761,292.5C 760.333,291.5 760.333,290.5 761,289.5C 784.551,276.47 809.051,265.803 834.5,257.5 Z"/></g>
<g><path style="opacity:1" fill="#190900" d="M 739.5,259.5 C 738.952,261.394 737.952,263.06 736.5,264.5C 735.984,262.267 736.984,260.6 739.5,259.5 Z"/></g>
<g><path style="opacity:1" fill="#4b1d05" d="M 809.5,285.5 C 812.092,283.248 815.092,282.081 818.5,282C 815.852,284.05 812.852,285.216 809.5,285.5 Z"/></g>
<g><path style="opacity:1" fill="#0e0400" d="M 821.5,283.5 C 822.239,283.369 822.906,283.536 823.5,284C 819.667,288.5 815.833,293 812,297.5C 810.333,295.833 808.667,294.167 807,292.5C 806.312,291.668 806.479,291.002 807.5,290.5C 812.446,288.531 817.113,286.198 821.5,283.5 Z"/></g>
<g><path style="opacity:1" fill="#2f1404" d="M 809.5,285.5 C 806.601,286.81 803.601,288.143 800.5,289.5C 800.167,289.167 799.833,288.833 799.5,288.5C 802.489,286.338 805.823,285.338 809.5,285.5 Z"/></g>
<g><path style="opacity:1" fill="#e3550b" d="M 222.5,398.5 C 223.562,397.425 223.562,396.425 222.5,395.5C 218.759,397.331 214.759,397.997 210.5,397.5C 207.833,397.5 205.167,397.5 202.5,397.5C 200.372,396.371 198.039,396.204 195.5,397C 196.044,397.717 196.711,398.217 197.5,398.5C 210.397,403.615 222.73,409.782 234.5,417C 228.971,428.989 224.971,441.489 222.5,454.5C 209.323,451.884 196.656,447.884 184.5,442.5C 187.412,442.441 190.412,442.441 193.5,442.5C 189.019,440.288 184.353,438.622 179.5,437.5C 172.735,434.293 165.735,431.293 158.5,428.5C 157.833,428.5 157.167,428.5 156.5,428.5C 153.226,426.067 150.059,423.401 147,420.5C 146.495,422.518 145.995,424.518 145.5,426.5C 145.5,426.833 145.5,427.167 145.5,427.5C 144.275,426.848 143.608,425.681 143.5,424C 144.608,418.401 146.108,412.901 148,407.5C 148.561,406.978 149.228,406.645 150,406.5C 170.008,414.198 189.508,421.865 208.5,429.5C 210.092,428.398 210.925,429.065 211,431.5C 214.415,429.042 213.915,427.709 209.5,427.5C 191.402,417.949 173.402,408.116 155.5,398C 154.196,397.196 153.529,396.029 153.5,394.5C 155.072,388.188 158.072,382.688 162.5,378C 165.075,377.042 167.741,376.542 170.5,376.5C 178.819,377.499 187.152,377.666 195.5,377C 186.587,372.294 177.753,367.46 169,362.5C 169.812,356.849 171.812,351.516 175,346.5C 175.561,345.978 176.228,345.645 177,345.5C 197.549,357.193 218.715,367.36 240.5,376C 223.218,363.719 206.218,351.052 189.5,338C 187.443,336.281 185.776,334.281 184.5,332C 193.243,317.183 202.243,302.516 211.5,288C 213.289,287.48 214.956,287.813 216.5,289C 220.448,291.787 224.114,294.787 227.5,298C 221.868,308.43 216.701,318.93 212,329.5C 214.354,331.58 216.854,333.08 219.5,334C 223.792,327.25 227.959,320.417 232,313.5C 233.011,312.663 234.178,312.33 235.5,312.5C 235.281,313.675 235.614,314.675 236.5,315.5C 237.451,314.674 238.451,314.508 239.5,315C 242.39,316.938 245.056,319.105 247.5,321.5C 243.364,329.605 239.364,337.772 235.5,346C 237.619,348.281 239.952,350.448 242.5,352.5C 248.697,343.468 254.697,334.302 260.5,325C 261.833,324.333 263.167,324.333 264.5,325C 266.691,326.919 269.024,328.253 271.5,329C 254.015,312.856 238.015,295.523 223.5,277C 234.248,262.748 245.915,249.248 258.5,236.5C 263.167,240.5 267.5,244.833 271.5,249.5C 264.859,258.642 258.025,267.642 251,276.5C 252.065,279.606 254.065,282.273 257,284.5C 262.833,278 268.667,271.5 274.5,265C 275.577,264.53 276.577,264.697 277.5,265.5C 275.167,269.167 275.833,269.833 279.5,267.5C 281.17,270.002 283.336,272.002 286,273.5C 286.167,274.333 286.333,275.167 286.5,276C 282.116,283.4 277.282,290.567 272,297.5C 272.088,300.642 273.588,303.142 276.5,305C 277.167,305.667 277.833,305.667 278.5,305C 285.5,297.333 292.5,289.667 299.5,282C 302.698,282.467 305.531,283.967 308,286.5C 308.167,286.167 308.333,285.833 308.5,285.5C 296.369,266.735 284.369,247.901 272.5,229C 280.997,217.833 291.33,208.833 303.5,202C 313.985,199.82 322.152,203.32 328,212.5C 333.28,221.183 334.946,230.516 333,240.5C 340.526,244.067 348.026,247.734 355.5,251.5C 356.614,252.723 356.781,254.056 356,255.5C 354.333,259.833 352.667,264.167 351,268.5C 350.481,269.516 349.647,270.182 348.5,270.5C 339.623,266.228 330.623,262.228 321.5,258.5C 318.709,260.082 317.542,262.415 318,265.5C 322,270.833 326,276.167 330,281.5C 330.667,282.5 330.667,283.5 330,284.5C 325.086,288.421 319.919,291.921 314.5,295C 304,307.5 293.5,320 283,332.5C 281.468,334.562 279.468,335.896 277,336.5C 264.239,356.861 252.406,377.694 241.5,399C 235.144,399.594 228.811,399.427 222.5,398.5 Z"/></g>
<g><path style="opacity:1" fill="#5a2205" d="M 277.5,265.5 C 278.5,265.833 279.167,266.5 279.5,267.5C 275.833,269.833 275.167,269.167 277.5,265.5 Z"/></g>
<g><path style="opacity:1" fill="#070200" d="M 305.5,221.5 C 310.802,222.195 313.468,225.361 313.5,231C 313.038,237.094 310.371,241.927 305.5,245.5C 302.015,241.21 299.015,236.543 296.5,231.5C 299.551,228.121 302.551,224.788 305.5,221.5 Z"/></g>
<g><path style="opacity:1" fill="#250f01" d="M 787.5,292.5 C 789.225,292.843 789.725,293.843 789,295.5C 787.961,294.756 787.461,293.756 787.5,292.5 Z"/></g>
<g><path style="opacity:1" fill="#7d2f09" d="M 265.5,293.5 C 266.478,293.811 267.145,294.478 267.5,295.5C 266.253,297.042 266.253,298.542 267.5,300C 266.017,301.901 265.017,301.567 264.5,299C 265.884,297.043 265.217,296.043 262.5,296C 263.571,295.148 264.571,294.315 265.5,293.5 Z"/></g>
<g><path style="opacity:1" fill="#833109" d="M 822.5,301.5 C 823.289,301.783 823.956,302.283 824.5,303C 823,303.833 821.833,305 821,306.5C 820.044,305.421 819.211,304.255 818.5,303C 820.058,302.79 821.391,302.29 822.5,301.5 Z"/></g>
<g><path style="opacity:1" fill="#e3550b" d="M 895.5,330.5 C 891.865,330.656 891.532,331.822 894.5,334C 895.448,334.483 896.448,334.649 897.5,334.5C 898.296,341.66 896.462,347.994 892,353.5C 887.029,357.404 881.529,360.404 875.5,362.5C 870.65,357.64 866.983,351.973 864.5,345.5C 864.608,344.558 864.941,343.725 865.5,343C 869.5,341.667 873.5,340.333 877.5,339C 880.167,337 880.167,335 877.5,333C 859.529,329.991 844.695,335.491 833,349.5C 832.316,354.501 834.483,357.668 839.5,359C 844.833,359.333 850.167,359.667 855.5,360C 856,360.5 856.5,361 857,361.5C 856.351,365.106 855.517,368.773 854.5,372.5C 840.018,378.084 827.518,374.751 817,362.5C 811.997,354.135 811.33,345.468 815,336.5C 830.211,315.423 850.711,307.256 876.5,312C 886.019,315.02 892.352,321.187 895.5,330.5 Z"/></g>
<g><path style="opacity:1" fill="#1d0c01" d="M 808.5,317.5 C 811.896,317.633 812.229,318.633 809.5,320.5C 809.709,321.086 810.043,321.586 810.5,322C 807.955,325.59 805.288,329.09 802.5,332.5C 802.167,332.167 801.833,331.833 801.5,331.5C 803.757,328.718 804.423,325.718 803.5,322.5C 805.101,320.667 806.768,319 808.5,317.5 Z"/></g>
<g><path style="opacity:1" fill="#682606" d="M 861.5,318.5 C 862.737,319.743 862.404,320.743 860.5,321.5C 860.167,321.167 859.833,320.833 859.5,320.5C 860.243,319.818 860.909,319.151 861.5,318.5 Z"/></g>
<g><path style="opacity:1" fill="#983809" d="M 895.5,330.5 C 896.674,331.514 897.34,332.847 897.5,334.5C 896.448,334.649 895.448,334.483 894.5,334C 891.532,331.822 891.865,330.656 895.5,330.5 Z"/></g>
<g><path style="opacity:1" fill="#642708" d="M 878.5,343.5 C 879.497,342.287 880.497,342.454 881.5,344C 880.423,344.47 879.423,344.303 878.5,343.5 Z"/></g>
<g><path style="opacity:1" fill="#4d1d05" d="M 230.5,347.5 C 230.5,348.167 230.167,348.5 229.5,348.5C 228.675,346.875 229.008,345.208 230.5,343.5C 230.906,344.557 230.906,345.891 230.5,347.5 Z"/></g>
<g><path style="opacity:1" fill="#a23c07" d="M 229.5,348.5 C 230.167,348.5 230.5,348.167 230.5,347.5C 231.496,347.586 232.329,347.252 233,346.5C 233.49,347.793 233.657,349.127 233.5,350.5C 234.873,350.343 236.207,350.51 237.5,351C 235.868,352.31 234.201,352.81 232.5,352.5C 232.251,351.418 232.085,350.085 232,348.5C 231.023,349.774 230.189,349.774 229.5,348.5 Z"/></g>
<g><path style="opacity:1" fill="#8c350a" d="M 881.5,345.5 C 884.101,346.922 883.934,348.256 881,349.5C 880.5,349.167 880,348.833 879.5,348.5C 880.193,347.482 880.859,346.482 881.5,345.5 Z"/></g>
<g><path style="opacity:1" fill="#291001" d="M 258.5,353.5 C 259.773,354.077 259.773,354.743 258.5,355.5C 257.537,355.03 257.537,354.363 258.5,353.5 Z"/></g>
<g><path style="opacity:1" fill="#e5560b" d="M 908.5,359.5 C 910.144,359.286 911.644,359.62 913,360.5C 915.72,366.262 917.554,372.262 918.5,378.5C 911.144,379.841 904.144,382.174 897.5,385.5C 907.71,390.104 918.043,394.438 928.5,398.5C 929.631,400.074 929.798,401.741 929,403.5C 927.218,408.229 925.051,412.729 922.5,417C 911.434,414.035 900.434,410.535 889.5,406.5C 887.971,406.529 886.804,407.196 886,408.5C 880.167,417.667 874.333,426.833 868.5,436C 861.93,434.809 855.763,432.309 850,428.5C 849.48,426.711 849.813,425.044 851,423.5C 857.756,414.573 863.922,405.24 869.5,395.5C 860.422,397.839 851.422,401.172 842.5,405.5C 840.282,404.076 838.782,402.076 838,399.5C 836.029,395.26 834.695,390.927 834,386.5C 858.67,376.779 883.503,367.779 908.5,359.5 Z"/></g>
<g><path style="opacity:1" fill="#040100" d="M 869.5,387.5 C 870.077,386.227 870.743,386.227 871.5,387.5C 871.03,388.463 870.363,388.463 869.5,387.5 Z"/></g>
<g><path style="opacity:1" fill="#af4109" d="M 219.5,388.5 C 220.915,389.289 222.415,389.956 224,390.5C 225.301,389.107 226.801,388.607 228.5,389C 228.374,390.974 228.208,393.141 228,395.5C 225.087,392.797 221.587,391.297 217.5,391C 218.756,390.583 219.423,389.75 219.5,388.5 Z"/></g>
<g><path style="opacity:1" fill="#732a06" d="M 202.5,397.5 C 200.585,397.216 198.919,397.549 197.5,398.5C 196.711,398.217 196.044,397.717 195.5,397C 198.039,396.204 200.372,396.371 202.5,397.5 Z"/></g>
<g><path style="opacity:1" fill="#9c3a09" d="M 222.5,398.5 C 218.298,398.817 214.298,398.483 210.5,397.5C 214.759,397.997 218.759,397.331 222.5,395.5C 223.562,396.425 223.562,397.425 222.5,398.5 Z"/></g>
<g><path style="opacity:1" fill="#200d01" d="M 156.5,428.5 C 156.083,429.124 155.416,429.457 154.5,429.5C 151.364,428.677 148.364,427.677 145.5,426.5C 145.995,424.518 146.495,422.518 147,420.5C 150.059,423.401 153.226,426.067 156.5,428.5 Z"/></g>
<g><path style="opacity:1" fill="#722a08" d="M 209.5,427.5 C 213.915,427.709 214.415,429.042 211,431.5C 210.925,429.065 210.092,428.398 208.5,429.5C 208.328,428.508 208.662,427.842 209.5,427.5 Z"/></g>
<g><path style="opacity:0.981" fill="#050302" d="M 841.5,836.5 C 840.833,833.5 840.167,830.5 839.5,827.5C 838.829,832.193 836.995,836.526 834,840.5C 827.093,849.798 819.593,858.631 811.5,867C 803.946,872.138 795.613,874.638 786.5,874.5C 786.917,881.499 784.25,886.999 778.5,891C 773.366,893.969 768.366,897.136 763.5,900.5C 761.225,909.82 759.058,919.154 757,928.5C 753.987,922.462 750.487,916.796 746.5,911.5C 742,914.585 737.333,917.418 732.5,920C 728.787,920.405 725.121,920.405 721.5,920C 709.665,928.251 696.999,934.917 683.5,940C 684.866,942.438 684.366,942.938 682,941.5C 680.435,942.952 679.102,944.619 678,946.5C 676.991,944.975 676.491,943.308 676.5,941.5C 671.515,941.852 666.681,941.185 662,939.5C 659.842,940.451 657.675,940.951 655.5,941C 656.765,939.663 657.265,938.163 657,936.5C 651.978,932.978 647.811,928.645 644.5,923.5C 639.359,922.59 634.359,923.257 629.5,925.5C 629.167,925.167 628.833,924.833 628.5,924.5C 631.248,919.334 634.248,914.334 637.5,909.5C 636.221,907.854 634.555,906.687 632.5,906C 636.292,905.311 638.292,903.144 638.5,899.5C 636.801,899.66 635.134,899.494 633.5,899C 636.009,896.157 637.509,892.99 638,889.5C 635.831,885.81 632.664,884.143 628.5,884.5C 629.167,880.5 627.5,878.833 623.5,879.5C 623.586,877.323 624.253,875.323 625.5,873.5C 623.5,871.5 621.5,869.5 619.5,867.5C 620.628,866.738 621.795,866.071 623,865.5C 623.413,862.768 624.08,860.101 625,857.5C 628.667,852.167 632.333,846.833 636,841.5C 642.27,834.531 649.77,832.698 658.5,836C 660.126,833.372 662.126,831.039 664.5,829C 672.5,825.667 680.5,822.333 688.5,819C 699.065,811.587 709.732,804.42 720.5,797.5C 721.367,794.016 722.534,790.683 724,787.5C 724.635,788.966 725.469,790.3 726.5,791.5C 730.796,792.328 735.129,792.828 739.5,793C 742.323,794.483 745.157,795.983 748,797.5C 753.702,795.403 754.702,792.07 751,787.5C 747.922,785.045 744.756,782.711 741.5,780.5C 743.792,778.343 746.125,776.176 748.5,774C 742.833,767 737.167,760 731.5,753C 740.534,756.253 749.7,759.419 759,762.5C 763.127,761.015 766.96,758.849 770.5,756C 771.793,755.51 773.127,755.343 774.5,755.5C 774.481,753.94 774.148,752.44 773.5,751C 778.704,744.107 784.037,737.274 789.5,730.5C 788.018,728.517 786.351,726.684 784.5,725C 789.202,724.828 793.868,724.328 798.5,723.5C 802.091,717.319 805.424,710.986 808.5,704.5C 805.891,701.856 802.891,699.689 799.5,698C 804.908,696.353 810.241,694.52 815.5,692.5C 816.957,688.308 817.957,683.975 818.5,679.5C 819.478,679.977 820.311,680.643 821,681.5C 822.29,679.208 823.957,677.208 826,675.5C 830.64,661.913 835.473,648.413 840.5,635C 839.794,632.38 838.794,629.88 837.5,627.5C 839.164,626.777 840.831,627.11 842.5,628.5C 844.167,626.5 845.833,624.5 847.5,622.5C 845.007,620.42 842.341,618.586 839.5,617C 841.569,615.477 843.903,614.643 846.5,614.5C 846.803,606.681 847.97,599.014 850,591.5C 851.244,588.018 853.244,585.018 856,582.5C 855.999,570.136 855.499,557.803 854.5,545.5C 855.188,539.967 855.521,534.467 855.5,529C 855.29,525.943 853.957,523.443 851.5,521.5C 853.045,520.548 854.712,520.215 856.5,520.5C 856.853,517.121 858.187,514.121 860.5,511.5C 859.176,510.065 857.51,509.065 855.5,508.5C 856.485,506.902 856.651,505.235 856,503.5C 852.6,496.572 850.433,489.239 849.5,481.5C 848.5,481.167 847.833,480.5 847.5,479.5C 848.84,478.312 849.507,476.812 849.5,475C 846.62,463.886 850.62,456.553 861.5,453C 865.167,452.667 868.833,452.333 872.5,452C 873.373,450.955 874.373,450.122 875.5,449.5C 878.167,447.5 880.5,445.167 882.5,442.5C 887.797,436.702 893.297,431.035 899,425.5C 897.031,433.718 895.198,442.051 893.5,450.5C 910.824,449.421 928.157,448.921 945.5,449C 947.983,450.326 950.483,451.493 953,452.5C 957.138,451.503 961.304,451.336 965.5,452C 962.621,456.756 960.288,461.756 958.5,467C 963.498,479.139 964.665,491.639 962,504.5C 960.56,508.547 958.726,512.38 956.5,516C 958.131,517.926 959.965,519.76 962,521.5C 963.275,523.717 964.275,526.051 965,528.5C 965.333,535.833 965.667,543.167 966,550.5C 972.5,556.333 979,562.167 985.5,568C 978.842,568.5 972.175,568.666 965.5,568.5C 965.666,573.511 965.499,578.511 965,583.5C 963.059,591.375 961.726,599.375 961,607.5C 960.421,615.674 956.588,621.674 949.5,625.5C 952.848,629.517 957.181,631.85 962.5,632.5C 956.197,642.635 949.697,652.635 943,662.5C 943.405,666.121 943.405,669.787 943,673.5C 940.331,680.007 938.164,686.673 936.5,693.5C 939.046,700.262 941.879,706.928 945,713.5C 945.749,714.635 945.583,715.635 944.5,716.5C 939.751,714.695 935.085,712.695 930.5,710.5C 928.244,715.425 926.078,720.425 924,725.5C 922.333,727.167 920.667,728.833 919,730.5C 916.505,742.325 910.671,752.159 901.5,760C 897.047,760.363 893.88,762.529 892,766.5C 890.833,764.667 889.667,762.833 888.5,761C 875.581,752.624 862.748,744.124 850,735.5C 848.812,736.563 848.312,737.897 848.5,739.5C 849.552,739.351 850.552,739.517 851.5,740C 855.8,745.301 860.466,750.301 865.5,755C 865.167,755.333 864.833,755.667 864.5,756C 877.345,771.68 879.845,788.847 872,807.5C 869.814,811.198 867.147,814.532 864,817.5C 863.517,818.448 863.351,819.448 863.5,820.5C 859.287,820.943 855.954,822.943 853.5,826.5C 852.549,825.674 851.549,825.508 850.5,826C 847.137,829.252 844.137,832.752 841.5,836.5 Z"/></g>
<g><path style="opacity:1" fill="#301403" d="M 158.5,428.5 C 165.735,431.293 172.735,434.293 179.5,437.5C 172.598,435.219 165.598,433.219 158.5,431.5C 158.5,430.5 158.5,429.5 158.5,428.5 Z"/></g>
<g><path style="opacity:1" fill="#8c3408" d="M 214.5,431.5 C 215.537,433.683 217.037,434.016 219,432.5C 223.047,432.993 223.547,434.659 220.5,437.5C 219.335,436.509 218.168,435.509 217,434.5C 215.238,434.944 215.405,435.444 217.5,436C 216.552,436.483 215.552,436.649 214.5,436.5C 214.5,434.833 214.5,433.167 214.5,431.5 Z"/></g>
<g><path style="opacity:1" fill="#c0480b" d="M 145.5,426.5 C 148.364,427.677 151.364,428.677 154.5,429.5C 155.416,429.457 156.083,429.124 156.5,428.5C 157.167,428.5 157.833,428.5 158.5,428.5C 158.5,429.5 158.5,430.5 158.5,431.5C 165.598,433.219 172.598,435.219 179.5,437.5C 184.353,438.622 189.019,440.288 193.5,442.5C 190.412,442.441 187.412,442.441 184.5,442.5C 171.1,438.291 158.1,433.291 145.5,427.5C 145.5,427.167 145.5,426.833 145.5,426.5 Z"/></g>
<g><path style="opacity:1" fill="#e4550b" d="M 147.5,442.5 C 155.783,441.568 163.616,442.902 171,446.5C 170.402,452.499 169.402,458.499 168,464.5C 167.439,465.022 166.772,465.355 166,465.5C 162.276,463.962 158.443,463.462 154.5,464C 153.424,465.726 153.257,467.559 154,469.5C 158.655,475.756 164.822,479.922 172.5,482C 176.58,482.687 180.58,483.687 184.5,485C 188.625,485.854 192.625,485.52 196.5,484C 199.503,479.518 198.837,475.685 194.5,472.5C 193.702,474.078 193.202,475.744 193,477.5C 192.107,478.081 191.107,478.415 190,478.5C 184.32,477.275 178.986,475.275 174,472.5C 172.902,465.615 173.569,458.949 176,452.5C 178.455,449.123 181.789,447.457 186,447.5C 215.335,454.516 223.335,471.516 210,498.5C 202.794,504.122 194.627,506.288 185.5,505C 172.542,503.237 160.542,498.904 149.5,492C 136.091,481.196 132.258,467.696 138,451.5C 140.406,447.592 143.572,444.592 147.5,442.5 Z"/></g>
<g><path style="opacity:0.973" fill="#737373" d="M 881.5,442.5 C 881.833,442.5 882.167,442.5 882.5,442.5C 880.5,445.167 878.167,447.5 875.5,449.5C 875.5,449.167 875.5,448.833 875.5,448.5C 877.167,446.167 879.167,444.167 881.5,442.5 Z"/></g>
<g><path style="opacity:1" fill="#5f2306" d="M 182.5,455.5 C 186.083,454.582 189.75,454.916 193.5,456.5C 193,456.833 192.5,457.167 192,457.5C 188.863,456.639 185.697,455.973 182.5,455.5 Z"/></g>
<g><path style="opacity:1" fill="#7e2e07" d="M 155.5,455.5 C 156.978,455.238 158.311,455.571 159.5,456.5C 158.167,456.833 156.833,457.167 155.5,457.5C 154.537,457.03 154.537,456.363 155.5,455.5 Z"/></g>
<g><path style="opacity:1" fill="#e4550b" d="M 865.5,491.5 C 865.5,491.167 865.5,490.833 865.5,490.5C 863.56,482.718 862.893,474.885 863.5,467C 889.672,464.078 915.839,462.911 942,463.5C 946.34,472.183 948.84,481.35 949.5,491C 950.234,500.197 946.901,507.53 939.5,513C 925.451,519.612 910.784,521.279 895.5,518C 881.11,513.996 871.11,505.162 865.5,491.5 Z"/></g>
<g><path style="opacity:1" fill="#9f3b07" d="M 914.5,465.5 C 917.898,465.18 921.232,465.513 924.5,466.5C 922.833,466.833 921.167,467.167 919.5,467.5C 917.36,467.444 915.694,466.777 914.5,465.5 Z"/></g>
<g><path style="opacity:1" fill="#080200" d="M 915.5,499.5 C 914.833,500.167 914.167,500.833 913.5,501.5C 906.514,500.156 899.514,497.989 892.5,495C 882.361,485.029 884.694,481.195 899.5,483.5C 907.543,483.028 915.543,482.361 923.5,481.5C 924.795,482.098 926.128,482.598 927.5,483C 932.055,494.314 928.055,499.814 915.5,499.5 Z"/></g>
<g><path style="opacity:0.992" fill="#ededed" d="M 865.5,490.5 C 865.5,490.833 865.5,491.167 865.5,491.5C 863.167,491.5 860.833,491.5 858.5,491.5C 858.017,487.423 859.684,485.09 863.5,484.5C 863.025,487.082 863.692,489.082 865.5,490.5 Z"/></g>
<g><path style="opacity:1" fill="#7a2e09" d="M 915.5,499.5 C 915.577,500.75 916.244,501.583 917.5,502C 915.573,505.461 914.239,505.294 913.5,501.5C 914.167,500.833 914.833,500.167 915.5,499.5 Z"/></g>
<g><path style="opacity:1" fill="#e3550b" d="M 169.5,543.5 C 167.314,543.511 166.481,544.511 167,546.5C 169.041,545.577 171.208,545.244 173.5,545.5C 186.11,545.17 198.61,545.837 211,547.5C 211.667,553.833 211.667,560.167 211,566.5C 210.308,567.025 209.808,567.692 209.5,568.5C 213.229,585.311 216.896,602.144 220.5,619C 219.907,620.882 218.573,621.882 216.5,622C 190.939,625.762 165.273,628.095 139.5,629C 135.328,612.319 131.662,595.486 128.5,578.5C 128.781,576.222 130.115,575.055 132.5,575C 137.161,574.166 141.828,573.832 146.5,574C 150.202,584.635 153.369,595.468 156,606.5C 159.057,607.451 162.223,607.784 165.5,607.5C 163.781,598.236 162.448,588.903 161.5,579.5C 162.5,579.5 163.5,579.5 164.5,579.5C 164.423,580.75 163.756,581.583 162.5,582C 166.527,582.331 170.527,581.998 174.5,581C 175.696,580.346 175.696,579.846 174.5,579.5C 171.961,580.115 169.461,580.782 167,581.5C 166.761,580.212 167.261,579.212 168.5,578.5C 171.702,577.3 174.869,577.3 178,578.5C 180.811,587.097 183.311,595.764 185.5,604.5C 189.064,604.849 192.398,604.183 195.5,602.5C 193.565,592.326 191.565,582.16 189.5,572C 189.759,570.739 190.426,569.739 191.5,569C 193.473,568.505 195.473,568.338 197.5,568.5C 198.978,568.762 200.311,568.429 201.5,567.5C 198.914,566.52 196.247,566.187 193.5,566.5C 174.111,565.773 154.778,564.273 135.5,562C 132.666,561.955 130.166,561.121 128,559.5C 127.333,554.167 127.333,548.833 128,543.5C 129.458,541.04 131.291,538.873 133.5,537C 142.347,533.329 151.347,530.163 160.5,527.5C 161.043,527.44 161.376,527.107 161.5,526.5C 158.914,525.52 156.247,525.187 153.5,525.5C 145.476,525.434 137.476,524.934 129.5,524C 128.167,517.667 128.167,511.333 129.5,505C 156.825,506.945 183.991,508.445 211,509.5C 211.81,516.082 211.643,522.582 210.5,529C 196.759,533.883 183.092,538.716 169.5,543.5 Z"/></g>
<g><path style="opacity:1" fill="#281001" d="M 931.5,505.5 C 933.337,505.639 933.67,506.306 932.5,507.5C 931.702,507.043 931.369,506.376 931.5,505.5 Z"/></g>
<g><path style="opacity:1" fill="#e2540b" d="M 922.5,546.5 C 921.828,545.733 920.995,545.066 920,544.5C 919.5,553.16 919.334,561.827 919.5,570.5C 917.833,570.5 916.167,570.5 914.5,570.5C 914.5,571.5 914.5,572.5 914.5,573.5C 910.563,573.793 906.73,573.46 903,572.5C 902.12,563.119 900.953,553.785 899.5,544.5C 896.579,543.593 893.579,543.26 890.5,543.5C 890.821,554.748 890.487,565.915 889.5,577C 882.918,577.81 876.418,577.643 870,576.5C 869.175,558.26 869.341,540.093 870.5,522C 896.968,522.703 923.301,525.036 949.5,529C 950,529.5 950.5,530 951,530.5C 951.667,547.833 951.667,565.167 951,582.5C 945.25,583.641 939.416,583.807 933.5,583C 933,582.5 932.5,582 932,581.5C 931.031,570.185 930.364,558.852 930,547.5C 927.619,546.565 925.119,546.232 922.5,546.5 Z"/></g>
<g><path style="opacity:1" fill="#7e2e08" d="M 153.5,525.5 C 156.247,525.187 158.914,525.52 161.5,526.5C 161.376,527.107 161.043,527.44 160.5,527.5C 158.167,526.833 155.833,526.167 153.5,525.5 Z"/></g>
<g><path style="opacity:1" fill="#a13c09" d="M 187.5,525.5 C 189.238,527.119 189.738,529.119 189,531.5C 188,530.167 187,530.167 186,531.5C 185.591,529.305 186.091,527.305 187.5,525.5 Z"/></g>
<g><path style="opacity:1" fill="#281102" d="M 902.5,540.5 C 903.386,539.224 904.386,539.224 905.5,540.5C 904.575,541.562 903.575,541.562 902.5,540.5 Z"/></g>
<g><path style="opacity:1" fill="#692809" d="M 906.5,541.5 C 909.028,542.518 908.861,543.518 906,544.5C 905.5,544.167 905,543.833 904.5,543.5C 905.243,542.818 905.909,542.151 906.5,541.5 Z"/></g>
<g><path style="opacity:1" fill="#722a06" d="M 169.5,543.5 C 170.833,544.167 172.167,544.833 173.5,545.5C 171.208,545.244 169.041,545.577 167,546.5C 166.481,544.511 167.314,543.511 169.5,543.5 Z"/></g>
<g><path style="opacity:1" fill="#732a07" d="M 193.5,566.5 C 196.247,566.187 198.914,566.52 201.5,567.5C 200.311,568.429 198.978,568.762 197.5,568.5C 196.167,567.833 194.833,567.167 193.5,566.5 Z"/></g>
<g><path style="opacity:1" fill="#772c07" d="M 922.5,546.5 C 920.691,554.775 919.858,563.442 920,572.5C 918.301,573.406 916.467,573.739 914.5,573.5C 914.5,572.5 914.5,571.5 914.5,570.5C 916.167,570.5 917.833,570.5 919.5,570.5C 919.334,561.827 919.5,553.16 920,544.5C 920.995,545.066 921.828,545.733 922.5,546.5 Z"/></g>
<g><path style="opacity:1" fill="#8e3407" d="M 168.5,578.5 C 167.261,579.212 166.761,580.212 167,581.5C 169.461,580.782 171.961,580.115 174.5,579.5C 175.696,579.846 175.696,580.346 174.5,581C 170.527,581.998 166.527,582.331 162.5,582C 163.756,581.583 164.423,580.75 164.5,579.5C 165.568,578.566 166.901,578.232 168.5,578.5 Z"/></g>
<g><path style="opacity:1" fill="#b14208" d="M 864.5,593.5 C 882.167,592.167 899.833,592.167 917.5,593.5C 899.68,593.608 882.014,593.608 864.5,593.5 Z"/></g>
<g><path style="opacity:1" fill="#3d1602" d="M 207.5,593.5 C 209.337,593.639 209.67,594.306 208.5,595.5C 207.702,595.043 207.369,594.376 207.5,593.5 Z"/></g>
<g><path style="opacity:1" fill="#e5560b" d="M 864.5,593.5 C 882.014,593.608 899.68,593.608 917.5,593.5C 927.839,593.334 938.172,593.5 948.5,594C 949.022,594.561 949.355,595.228 949.5,596C 948.453,601.611 946.786,606.944 944.5,612C 935.506,612.5 926.506,612.666 917.5,612.5C 911.824,612.334 906.157,612.501 900.5,613C 901.044,613.717 901.711,614.217 902.5,614.5C 914.354,621.506 926.354,628.339 938.5,635C 940.439,635.908 941.439,637.408 941.5,639.5C 938.832,639.334 936.498,638.334 934.5,636.5C 933.406,637.868 933.74,639.035 935.5,640C 936.793,640.49 938.127,640.657 939.5,640.5C 938.038,644.817 935.872,648.817 933,652.5C 931.951,653.517 930.784,653.684 929.5,653C 906.824,639.996 884.157,626.996 861.5,614C 860.882,606.923 861.882,600.09 864.5,593.5 Z"/></g>
<g><path style="opacity:1" fill="#7c2e06" d="M 880.5,595.5 C 885.511,595.334 890.511,595.501 895.5,596C 891.486,596.39 887.486,596.89 883.5,597.5C 881.97,597.36 880.97,596.693 880.5,595.5 Z"/></g>
<g><path style="opacity:1" fill="#a53d09" d="M 178.5,605.5 C 182.192,604.971 185.358,605.971 188,608.5C 188.419,607.328 189.085,606.328 190,605.5C 190.135,610.067 188.468,611.067 185,608.5C 182.407,611.933 179.24,612.433 175.5,610C 177.141,608.871 178.141,607.371 178.5,605.5 Z"/></g>
<g><path style="opacity:1" fill="#461903" d="M 917.5,612.5 C 912.5,613.167 907.5,613.833 902.5,614.5C 901.711,614.217 901.044,613.717 900.5,613C 906.157,612.501 911.824,612.334 917.5,612.5 Z"/></g>
<g><path style="opacity:1" fill="#e3550b" d="M 185.5,679.5 C 188.516,678.438 191.516,677.271 194.5,676C 192.398,676.256 190.398,676.089 188.5,675.5C 192.098,672.912 196.098,671.412 200.5,671C 205.208,678.917 210.041,686.75 215,694.5C 217.443,693.407 219.943,692.407 222.5,691.5C 223.583,690.635 223.749,689.635 223,688.5C 218.831,679.495 214.664,670.495 210.5,661.5C 210.529,659.971 211.196,658.804 212.5,658C 216.286,656.607 219.952,654.941 223.5,653C 225.259,652.202 226.926,652.369 228.5,653.5C 236.255,668.01 243.755,682.677 251,697.5C 251.798,699.259 251.631,700.926 250.5,702.5C 226.48,712.618 202.146,721.952 177.5,730.5C 168.284,715.238 159.95,699.405 152.5,683C 153.52,680.974 155.187,679.641 157.5,679C 161.474,677.231 165.474,675.897 169.5,675C 175.066,683.574 180.232,692.407 185,701.5C 188.533,704.882 192.366,704.882 196.5,701.5C 192.82,694.14 189.153,686.807 185.5,679.5 Z"/></g>
<g><path style="opacity:1" fill="#893308" d="M 188.5,675.5 C 190.398,676.089 192.398,676.256 194.5,676C 191.516,677.271 188.516,678.438 185.5,679.5C 184.668,677.275 185.668,675.942 188.5,675.5 Z"/></g>
<g><path style="opacity:1" fill="#251001" d="M 233.5,677.5 C 234.289,677.783 234.956,678.283 235.5,679C 234.184,679.528 233.517,679.028 233.5,677.5 Z"/></g>
<g><path style="opacity:1" fill="#8f3509" d="M 213.5,695.5 C 214.807,696.153 216.14,696.82 217.5,697.5C 218.192,696.975 218.692,696.308 219,695.5C 219.774,697.403 219.44,699.07 218,700.5C 217.692,699.692 217.192,699.025 216.5,698.5C 214.562,701.079 212.729,701.079 211,698.5C 210.268,700.923 208.768,702.09 206.5,702C 207.87,700.559 208.87,698.892 209.5,697C 210.996,696.493 212.163,696.993 213,698.5C 213.483,697.552 213.649,696.552 213.5,695.5 Z"/></g>
<g><path style="opacity:1" fill="#e4550b" d="M 243.5,706.5 C 248.014,707.421 252.347,708.921 256.5,711C 258.874,711.848 260.874,713.181 262.5,715C 257.615,722.903 253.115,731.069 249,739.5C 248.94,742.648 250.44,744.981 253.5,746.5C 258.698,742.803 264.031,739.303 269.5,736C 271.044,734.813 272.711,734.48 274.5,735C 281.541,744.048 289.374,752.548 298,760.5C 298.52,762.289 298.187,763.956 297,765.5C 293.796,768.369 290.963,771.535 288.5,775C 293.362,778.695 298.362,782.195 303.5,785.5C 306.5,783.667 309.5,781.833 312.5,780C 313.833,779.333 315.167,779.333 316.5,780C 320.847,785.011 325.18,790.011 329.5,795C 329.355,795.772 329.022,796.439 328.5,797C 304.482,810.676 279.482,822.176 253.5,831.5C 248.595,828.789 244.095,825.456 240,821.5C 238.48,817.625 238.146,813.625 239,809.5C 250.214,791.568 262.048,774.068 274.5,757C 272.402,757.032 270.402,757.699 268.5,759C 251.292,769.103 233.958,778.936 216.5,788.5C 214.272,787.781 212.439,786.448 211,784.5C 204.618,777.12 198.618,769.453 193,761.5C 189.79,754.778 189.79,748.112 193,741.5C 203.274,729.266 216.108,724.933 231.5,728.5C 235.512,721.14 239.512,713.806 243.5,706.5 Z"/></g>
<g><path style="opacity:1" fill="#873207" d="M 808.5,737.5 C 811.833,736.167 815.167,736.167 818.5,737.5C 817.833,737.5 817.5,737.833 817.5,738.5C 814.609,737.597 811.609,737.264 808.5,737.5 Z"/></g>
<g><path style="opacity:1" fill="#e3550b" d="M 887.5,695.5 C 884.819,695.538 882.319,694.871 880,693.5C 879.5,693.667 879,693.833 878.5,694C 879.942,694.377 880.942,695.21 881.5,696.5C 881.44,697.043 881.107,697.376 880.5,697.5C 877.382,696.441 874.382,695.108 871.5,693.5C 870.359,691.579 870.192,689.579 871,687.5C 873.656,679.909 875.156,672.242 875.5,664.5C 873.393,663.363 871.227,662.363 869,661.5C 864.37,671.199 860.204,681.199 856.5,691.5C 855.833,691.833 855.167,692.167 854.5,692.5C 850.496,690.977 846.496,689.81 842.5,689C 863,702.833 883.5,716.667 904,730.5C 902.949,736.765 900.116,742.265 895.5,747C 894.167,747.667 892.833,747.667 891.5,747C 876.31,736.313 860.977,725.813 845.5,715.5C 840.292,724.084 834.958,732.584 829.5,741C 839.763,748.386 848.597,757.219 856,767.5C 863.697,779.234 864.364,791.234 858,803.5C 851.354,811.605 842.854,814.771 832.5,813C 822.969,810.076 814.969,804.909 808.5,797.5C 809.627,796.878 810.627,796.045 811.5,795C 810.402,794.23 810.402,793.397 811.5,792.5C 811.011,791.005 810.345,789.671 809.5,788.5C 810.023,786.292 811.356,784.792 813.5,784C 810.551,783.61 808.384,782.11 807,779.5C 806.617,780.056 806.117,780.389 805.5,780.5C 806.031,775.983 804.698,775.316 801.5,778.5C 799.225,779.308 797.225,779.308 795.5,778.5C 795.36,777.431 795.36,776.264 795.5,775C 794.207,774.51 792.873,774.343 791.5,774.5C 785.573,761.419 788.24,750.252 799.5,741C 802.148,738.95 805.148,737.784 808.5,737.5C 811.609,737.264 814.609,737.597 817.5,738.5C 817.5,737.833 817.833,737.5 818.5,737.5C 820.512,738.014 822.512,738.18 824.5,738C 819.774,735.31 815.44,732.144 811.5,728.5C 818.921,715.326 826.088,701.993 833,688.5C 834.542,686.696 836.209,685.029 838,683.5C 843.333,668.167 848.667,652.833 854,637.5C 854.637,635.697 855.803,634.364 857.5,633.5C 881.718,643.684 905.384,655.017 928.5,667.5C 929.614,668.723 929.781,670.056 929,671.5C 923.193,687.089 917.693,702.755 912.5,718.5C 906.914,717.547 901.581,715.714 896.5,713C 895.426,712.261 894.759,711.261 894.5,710C 897.5,699.667 900.5,689.333 903.5,679C 901.448,676.458 898.781,674.625 895.5,673.5C 892.239,680.618 889.572,687.951 887.5,695.5 Z"/></g>
<g><path style="opacity:1" fill="#582309" d="M 854.5,706.5 C 856.337,706.639 856.67,707.306 855.5,708.5C 854.702,708.043 854.369,707.376 854.5,706.5 Z"/></g>
<g><path style="opacity:1" fill="#a13c08" d="M 887.5,695.5 C 885.952,698.951 883.952,699.284 881.5,696.5C 880.942,695.21 879.942,694.377 878.5,694C 879,693.833 879.5,693.667 880,693.5C 882.319,694.871 884.819,695.538 887.5,695.5 Z"/></g>
<g><path style="opacity:1" fill="#8a3409" d="M 878.5,661.5 C 879.473,662.791 880.473,662.791 881.5,661.5C 883.398,663.468 885.731,664.802 888.5,665.5C 886.133,666.618 883.966,667.284 882,667.5C 881.667,666.167 881.333,664.833 881,663.5C 880.692,664.308 880.192,664.975 879.5,665.5C 878.571,664.311 878.238,662.978 878.5,661.5 Z"/></g>
<g><path style="opacity:1" fill="#351402" d="M 851.5,661.5 C 854.001,661.511 854.168,662.178 852,663.5C 851.536,662.906 851.369,662.239 851.5,661.5 Z"/></g>
<g><path style="opacity:1" fill="#562006" d="M 817.5,738.5 C 819.196,738.685 820.529,739.519 821.5,741C 819.588,741.279 818.254,740.446 817.5,738.5 Z"/></g>
<g><path style="opacity:1" fill="#090200" d="M 214.5,748.5 C 223.309,746.905 230.309,749.739 235.5,757C 231.007,759.079 226.674,761.412 222.5,764C 217.363,763.231 213.53,760.397 211,755.5C 210.176,752.16 211.343,749.827 214.5,748.5 Z"/></g>
<g><path style="opacity:1" fill="#2c1202" d="M 809.5,747.5 C 810.5,747.5 811.5,747.5 812.5,747.5C 812.5,748.5 812.5,749.5 812.5,750.5C 811.5,750.5 810.5,750.5 809.5,750.5C 809.5,749.5 809.5,748.5 809.5,747.5 Z"/></g>
<g><path style="opacity:1" fill="#231002" d="M 284.5,754.5 C 285.376,754.369 286.043,754.702 286.5,755.5C 284.512,758.404 283.845,761.404 284.5,764.5C 282.167,767.167 279.833,769.833 277.5,772.5C 277.167,771.167 276.833,769.833 276.5,768.5C 277.376,767.749 278.376,767.249 279.5,767C 278.833,766.667 278.167,766.333 277.5,766C 280.086,762.264 282.419,758.43 284.5,754.5 Z"/></g>
<g><path style="opacity:1" fill="#070200" d="M 822.5,783.5 C 821.415,781.413 819.749,780.08 817.5,779.5C 813.418,774.345 810.084,768.678 807.5,762.5C 807.628,758.887 809.461,757.22 813,757.5C 816.233,757.7 819.067,758.867 821.5,761C 827.57,765.947 833.07,771.447 838,777.5C 841.377,781.42 843.543,785.92 844.5,791C 844.441,792.436 844.108,793.769 843.5,795C 841.5,795.667 839.5,795.667 837.5,795C 832.11,791.642 827.11,787.809 822.5,783.5 Z"/></g>
<g><path style="opacity:0.639" fill="#878787" d="M 330.5,756.5 C 329.673,761.985 329.173,767.652 329,773.5C 328.283,772.956 327.783,772.289 327.5,771.5C 328.327,766.015 328.827,760.348 329,754.5C 329.717,755.044 330.217,755.711 330.5,756.5 Z"/></g>
<g><path style="opacity:1" fill="#250f01" d="M 796.5,764.5 C 800.339,765.05 800.339,766.05 796.5,767.5C 795.438,766.575 795.438,765.575 796.5,764.5 Z"/></g>
<g><path style="opacity:1" fill="#662707" d="M 793.5,769.5 C 795.337,769.639 795.67,770.306 794.5,771.5C 793.702,771.043 793.369,770.376 793.5,769.5 Z"/></g>
<g><path style="opacity:1" fill="#e3550b" d="M 775.5,768.5 C 777.39,768.297 778.89,768.963 780,770.5C 794.847,790.011 809.681,809.511 824.5,829C 818.316,838.859 810.983,847.859 802.5,856C 792.382,862.422 782.716,861.756 773.5,854C 763.618,845.731 759.784,835.231 762,822.5C 765.962,814.064 770.796,806.231 776.5,799C 771.922,793.177 767.588,787.177 763.5,781C 767.018,776.317 771.018,772.15 775.5,768.5 Z"/></g>
<g><path style="opacity:1" fill="#1b0b01" d="M 775.5,772.5 C 776.822,772.33 777.989,772.663 779,773.5C 781.828,778.925 784.494,784.259 787,789.5C 783,784.833 779,780.167 775,775.5C 774.53,774.423 774.697,773.423 775.5,772.5 Z"/></g>
<g><path style="opacity:1" fill="#4c1c04" d="M 810.5,774.5 C 811.559,776.07 811.059,777.403 809,778.5C 808.7,776.934 809.2,775.601 810.5,774.5 Z"/></g>
<g><path style="opacity:1" fill="#ca4b0a" d="M 791.5,774.5 C 792.873,774.343 794.207,774.51 795.5,775C 795.36,776.264 795.36,777.431 795.5,778.5C 797.225,779.308 799.225,779.308 801.5,778.5C 802.833,779.167 804.167,779.833 805.5,780.5C 806.117,780.389 806.617,780.056 807,779.5C 808.384,782.11 810.551,783.61 813.5,784C 811.356,784.792 810.023,786.292 809.5,788.5C 808.394,789.149 807.394,789.483 806.5,789.5C 807.863,790.893 808.696,792.559 809,794.5C 809.417,793.244 810.25,792.577 811.5,792.5C 810.402,793.397 810.402,794.23 811.5,795C 810.627,796.045 809.627,796.878 808.5,797.5C 800.64,791.444 794.974,783.778 791.5,774.5 Z"/></g>
<g><path style="opacity:1" fill="#5f2407" d="M 805.5,780.5 C 804.167,779.833 802.833,779.167 801.5,778.5C 804.698,775.316 806.031,775.983 805.5,780.5 Z"/></g>
<g><path style="opacity:1" fill="#a03c0a" d="M 817.5,779.5 C 819.749,780.08 821.415,781.413 822.5,783.5C 819.221,786.52 816.887,785.854 815.5,781.5C 816.243,780.818 816.909,780.151 817.5,779.5 Z"/></g>
<g><path style="opacity:1" fill="#702b0a" d="M 267.5,781.5 C 268.289,781.783 268.956,782.283 269.5,783C 268,783.833 266.833,785 266,786.5C 265.36,784.457 265.86,782.79 267.5,781.5 Z"/></g>
<g><path style="opacity:1" fill="#6e2906" d="M 798.5,782.5 C 800.394,782.586 802.394,782.919 804.5,783.5C 804.154,784.696 803.654,784.696 803,783.5C 802.667,784.5 802.333,785.5 802,786.5C 799.929,785.897 798.762,784.564 798.5,782.5 Z"/></g>
<g><path style="opacity:1" fill="#0d0400" d="M 276.5,790.5 C 279.225,791.713 281.559,793.546 283.5,796C 277.81,799.016 272.144,801.683 266.5,804C 269.665,799.341 272.998,794.841 276.5,790.5 Z"/></g>
<g><path style="opacity:1" fill="#4c1d05" d="M 809.5,788.5 C 810.345,789.671 811.011,791.005 811.5,792.5C 810.25,792.577 809.417,793.244 809,794.5C 808.696,792.559 807.863,790.893 806.5,789.5C 807.394,789.483 808.394,789.149 809.5,788.5 Z"/></g>
<g><path style="opacity:1" fill="#2e1202" d="M 299.5,791.5 C 301.225,791.843 301.725,792.843 301,794.5C 299.961,793.756 299.461,792.756 299.5,791.5 Z"/></g>
<g><path style="opacity:1" fill="#2e1201" d="M 829.5,791.5 C 830.773,792.077 830.773,792.743 829.5,793.5C 828.537,793.03 828.537,792.363 829.5,791.5 Z"/></g>
<g><path style="opacity:1" fill="#3b1804" d="M 288.5,797.5 C 289.773,798.077 289.773,798.743 288.5,799.5C 282.822,801.423 277.322,803.756 272,806.5C 271.312,805.668 271.479,805.002 272.5,804.5C 277.935,802.143 283.268,799.809 288.5,797.5 Z"/></g>
<g><path style="opacity:1" fill="#e5560b" d="M 340.5,801.5 C 347.275,804.264 353.275,808.264 358.5,813.5C 354.15,819.872 350.65,826.539 348,833.5C 353.758,827.9 359.925,822.9 366.5,818.5C 372.72,821.72 378.387,825.72 383.5,830.5C 370.637,854.251 356.804,877.251 342,899.5C 337.932,896.881 333.766,894.381 329.5,892C 328.426,891.261 327.759,890.261 327.5,889C 332.125,881.241 336.292,873.408 340,865.5C 333.548,872.794 326.382,879.127 318.5,884.5C 312.293,882.917 307.959,879.25 305.5,873.5C 308.177,866.645 311.51,860.145 315.5,854C 315.167,853.833 314.833,853.667 314.5,853.5C 308.463,859.539 302.13,865.206 295.5,870.5C 293.971,870.471 292.804,869.804 292,868.5C 288.943,864.951 286.109,861.284 283.5,857.5C 284.897,854.594 286.897,852.094 289.5,850C 307.001,834.332 324.001,818.165 340.5,801.5 Z"/></g>
<g><path style="opacity:1" fill="#562006" d="M 265.5,806.5 C 267.337,806.639 267.67,807.306 266.5,808.5C 265.702,808.043 265.369,807.376 265.5,806.5 Z"/></g>
<g><path style="opacity:1" fill="#93370a" d="M 345.5,809.5 C 344.167,809.5 342.833,809.5 341.5,809.5C 341.5,811.167 341.5,812.833 341.5,814.5C 340.5,814.5 339.5,814.5 338.5,814.5C 338.863,816.911 337.863,818.411 335.5,819C 336.389,825.777 334.389,826.777 329.5,822C 330.094,821.536 330.761,821.369 331.5,821.5C 332.458,821.953 333.292,822.619 334,823.5C 334.519,821.511 333.686,820.511 331.5,820.5C 331.062,820.565 330.728,820.399 330.5,820C 332.01,817.245 334.343,816.079 337.5,816.5C 337.773,813.863 338.106,811.53 338.5,809.5C 340.108,808.682 341.775,808.015 343.5,807.5C 344.522,807.855 345.189,808.522 345.5,809.5 Z"/></g>
<g><path style="opacity:1" fill="#662708" d="M 345.5,809.5 C 347.196,809.685 348.529,810.519 349.5,812C 348.54,813.419 347.707,814.919 347,816.5C 345.663,814.182 345.163,811.849 345.5,809.5 Z"/></g>
<g><path style="opacity:1" fill="#090200" d="M 788.5,814.5 C 792.636,819.481 796.636,824.648 800.5,830C 798.167,833 795.833,836 793.5,839C 784.015,839.506 780.181,835.006 782,825.5C 783.674,821.476 785.841,817.809 788.5,814.5 Z"/></g>
<g><path style="opacity:1" fill="#792d09" d="M 342.5,814.5 C 342.56,813.957 342.893,813.624 343.5,813.5C 344.262,814.628 344.929,815.795 345.5,817C 344.027,817.71 343.36,818.876 343.5,820.5C 342.127,820.657 340.793,820.49 339.5,820C 340.728,819.221 341.728,818.221 342.5,817C 343.335,815.869 343.335,815.036 342.5,814.5 Z"/></g>
<g><path style="opacity:1" fill="#180800" d="M 331.5,821.5 C 331.5,821.167 331.5,820.833 331.5,820.5C 333.686,820.511 334.519,821.511 334,823.5C 333.292,822.619 332.458,821.953 331.5,821.5 Z"/></g>
<g><path style="opacity:1" fill="#3b1502" d="M 338.5,822.5 C 339.386,821.224 340.386,821.224 341.5,822.5C 340.575,823.562 339.575,823.562 338.5,822.5 Z"/></g>
<g><path style="opacity:1" fill="#672606" d="M 334.5,826.5 C 335.239,826.369 335.906,826.536 336.5,827C 335.167,828.333 335.167,829.667 336.5,831C 336,831.5 335.5,832 335,832.5C 334.091,830.342 333.925,828.342 334.5,826.5 Z"/></g>
<g><path style="opacity:0.584" fill="#8c8c8c" d="M 839.5,827.5 C 840.167,830.5 840.833,833.5 841.5,836.5C 841.44,837.043 841.107,837.376 840.5,837.5C 839.513,834.232 839.18,830.898 839.5,827.5 Z"/></g>
<g><path style="opacity:1" fill="#e3550b" d="M 717.5,873.5 C 720.499,869.824 719.832,868.824 715.5,870.5C 713.592,867.688 711.925,864.688 710.5,861.5C 717.496,855.341 724.662,849.341 732,843.5C 731.279,840.377 729.946,837.377 728,834.5C 719.251,840.125 710.417,845.625 701.5,851C 700.167,851.667 698.833,851.667 697.5,851C 696.126,848.417 694.626,845.917 693,843.5C 698.026,862.923 703.693,882.257 710,901.5C 711.392,904.822 711.559,908.155 710.5,911.5C 700.013,917.743 689.013,922.91 677.5,927C 667.598,928.299 660.432,924.466 656,915.5C 650.903,904.204 651.403,893.204 657.5,882.5C 650.319,876.816 643.652,870.649 637.5,864C 640.673,858.662 644.339,853.662 648.5,849C 649.908,848.685 651.241,849.018 652.5,850C 658.736,856.907 665.569,863.073 673,868.5C 675.513,867.321 677.346,865.487 678.5,863C 676.333,857.167 674.167,851.333 672,845.5C 671.202,843.741 671.369,842.074 672.5,840.5C 677.938,837.965 683.605,836.132 689.5,835C 703.833,825.333 718.167,815.667 732.5,806C 733.5,805.333 734.5,805.333 735.5,806C 749.386,828.769 761.72,852.436 772.5,877C 758.28,887.698 743.447,897.531 728,906.5C 727.228,906.355 726.561,906.022 726,905.5C 723.26,900.936 720.76,896.269 718.5,891.5C 719.545,889.795 720.878,888.295 722.5,887C 730.5,881 738.5,875 746.5,869C 744.873,866.246 743.373,863.412 742,860.5C 734.618,865.689 726.951,870.355 719,874.5C 718.235,874.43 717.735,874.097 717.5,873.5 Z"/></g>
<g><path style="opacity:1" fill="#271202" d="M 714.5,824.5 C 715.773,825.077 715.773,825.743 714.5,826.5C 713.537,826.03 713.537,825.363 714.5,824.5 Z"/></g>
<g><path style="opacity:1" fill="#e4550b" d="M 416.5,844.5 C 421.893,846.02 427.226,847.854 432.5,850C 434.18,850.347 435.18,851.347 435.5,853C 424.799,877.069 412.799,900.403 399.5,923C 397.833,923.667 396.167,923.667 394.5,923C 380.388,917.777 366.388,912.277 352.5,906.5C 351.417,905.635 351.251,904.635 352,903.5C 354,899.5 356,895.5 358,891.5C 358.739,890.426 359.739,889.759 361,889.5C 371.04,893.383 381.207,896.05 391.5,897.5C 393.626,894.081 395.626,890.581 397.5,887C 390.025,883.617 382.358,880.617 374.5,878C 373.426,877.261 372.759,876.261 372.5,875C 374.035,869.42 376.702,864.586 380.5,860.5C 388.936,863.708 397.603,865.541 406.5,866C 409.976,858.883 413.309,851.716 416.5,844.5 Z"/></g>
<g><path style="opacity:1" fill="#9b3a09" d="M 734.5,841.5 C 735.708,842.234 737.041,842.567 738.5,842.5C 738.579,843.93 738.246,845.264 737.5,846.5C 738.833,847.5 740.167,848.5 741.5,849.5C 741.167,849.833 740.833,850.167 740.5,850.5C 738.618,849.907 736.785,849.24 735,848.5C 734.503,846.19 734.337,843.857 734.5,841.5 Z"/></g>
<g><path style="opacity:1" fill="#e2550b" d="M 450.5,857.5 C 461.553,855.794 470.72,859.128 478,867.5C 478.97,869.274 479.804,871.107 480.5,873C 479.591,874.789 479.424,876.623 480,878.5C 480.333,877.5 480.667,876.5 481,875.5C 481.333,875.833 481.667,876.167 482,876.5C 482.79,895.223 477.79,912.223 467,927.5C 455.898,941.547 442.731,944.047 427.5,935C 419.161,926.489 416.328,916.322 419,904.5C 421.571,888.188 428.738,874.355 440.5,863C 443.767,860.87 447.1,859.037 450.5,857.5 Z"/></g>
<g><path style="opacity:1" fill="#e0540b" d="M 587.5,863.5 C 599.649,862.475 604.483,867.808 602,879.5C 596.553,885.29 590.553,885.957 584,881.5C 579.938,874.417 581.105,868.417 587.5,863.5 Z"/></g>
<g><path style="opacity:1" fill="#e3550b" d="M 503.5,865.5 C 517.139,864.654 528.806,868.82 538.5,878C 536.558,883.1 533.558,887.266 529.5,890.5C 525.029,887.763 520.363,885.263 515.5,883C 507.41,881.756 504.91,884.923 508,892.5C 511.251,896.422 515.084,899.588 519.5,902C 532.098,912.007 533.932,923.84 525,937.5C 517.168,947.314 507.001,950.814 494.5,948C 487.606,946.774 482.773,942.94 480,936.5C 479.261,930.442 479.594,924.442 481,918.5C 481.893,917.919 482.893,917.585 484,917.5C 488.81,918.193 493.643,918.693 498.5,919C 499.467,923.401 499.8,927.901 499.5,932.5C 501.467,932.739 503.301,932.406 505,931.5C 506.931,928.386 507.598,925.053 507,921.5C 500.333,914.833 493.667,908.167 487,901.5C 480.334,883.835 485.834,871.835 503.5,865.5 Z"/></g>
<g><path style="opacity:1" fill="#291202" d="M 444.5,867.5 C 446.359,867.461 447.692,868.294 448.5,870C 446.386,870.442 445.052,869.609 444.5,867.5 Z"/></g>
<g><path style="opacity:1" fill="#552005" d="M 717.5,873.5 C 716.599,872.71 715.932,871.71 715.5,870.5C 719.832,868.824 720.499,869.824 717.5,873.5 Z"/></g>
<g><path style="opacity:1" fill="#180800" d="M 466.5,872.5 C 470.31,873.754 470.31,874.754 466.5,875.5C 466.5,874.5 466.5,873.5 466.5,872.5 Z"/></g>
<g><path style="opacity:1" fill="#070200" d="M 440.5,902.5 C 441.669,899.659 442.669,896.659 443.5,893.5C 445.733,888.701 448.233,884.035 451,879.5C 454.06,876.064 457.393,875.731 461,878.5C 460.751,891.593 457.418,903.926 451,915.5C 442.767,927.194 438.433,926.194 438,912.5C 439.026,909.198 439.86,905.865 440.5,902.5 Z"/></g>
<g><path style="opacity:1" fill="#a23c09" d="M 439.5,880.5 C 438.778,880.082 438.278,879.416 438,878.5C 437.722,879.416 437.222,880.082 436.5,880.5C 434.745,879.038 433.412,877.205 432.5,875C 434.076,875.152 435.409,875.985 436.5,877.5C 438.071,876.691 439.738,876.357 441.5,876.5C 441.473,878.199 440.806,879.533 439.5,880.5 Z"/></g>
<g><path style="opacity:1" fill="#271001" d="M 439.5,880.5 C 438.5,881.833 437.5,881.833 436.5,880.5C 437.222,880.082 437.722,879.416 438,878.5C 438.278,879.416 438.778,880.082 439.5,880.5 Z"/></g>
<g><path style="opacity:1" fill="#7b2e08" d="M 431.5,877.5 C 432.473,879.25 433.807,880.75 435.5,882C 433.792,883.062 433.126,884.229 433.5,885.5C 432.692,885.192 432.025,884.692 431.5,884C 432.833,882.16 432.666,881.66 431,882.5C 430.36,880.735 430.527,879.068 431.5,877.5 Z"/></g>
<g><path style="opacity:1" fill="#6e2a0b" d="M 494.5,880.5 C 497.408,881.159 497.742,881.993 495.5,883C 495.833,883.333 496.167,883.667 496.5,884C 494.479,884.14 492.645,884.307 491,884.5C 490.833,884.167 490.667,883.833 490.5,883.5C 492.332,882.943 493.665,881.943 494.5,880.5 Z"/></g>
<g><path style="opacity:1" fill="#7c2e08" d="M 440.5,885.5 C 442.035,884.212 443.701,884.212 445.5,885.5C 443.905,886.434 442.239,886.434 440.5,885.5 Z"/></g>
<g><path style="opacity:1" fill="#0d0300" d="M 683.5,884.5 C 684.75,884.577 685.583,885.244 686,886.5C 687.169,891.177 688.336,895.844 689.5,900.5C 685.385,904.895 680.385,907.062 674.5,907C 671.551,901.203 672.051,895.703 676,890.5C 678.478,888.361 680.978,886.361 683.5,884.5 Z"/></g>
<g><path style="opacity:1" fill="#2a1102" d="M 430.5,886.5 C 431.014,887.625 431.347,888.791 431.5,890C 430.584,890.374 429.75,890.874 429,891.5C 428.36,889.457 428.86,887.79 430.5,886.5 Z"/></g>
<g><path style="opacity:1" fill="#331603" d="M 475.5,890.5 C 476.773,891.077 476.773,891.743 475.5,892.5C 474.537,892.03 474.537,891.363 475.5,890.5 Z"/></g>
<g><path style="opacity:1" fill="#9e3b09" d="M 443.5,893.5 C 442.669,896.659 441.669,899.659 440.5,902.5C 437.903,902.279 437.903,901.779 440.5,901C 439.786,899.657 440.12,898.324 441.5,897C 440.258,896.689 439.258,897.189 438.5,898.5C 437.769,896.599 437.769,894.599 438.5,892.5C 440.124,892.36 441.29,893.027 442,894.5C 442.383,893.944 442.883,893.611 443.5,893.5 Z"/></g>
<g><path style="opacity:1" fill="#883308" d="M 429.5,932.5 C 431.035,931.212 432.701,931.212 434.5,932.5C 434.192,933.308 433.692,933.975 433,934.5C 432.184,933.177 431.017,932.511 429.5,932.5 Z"/></g>
</svg>
